<?xml version="1.0" encoding="UTF-8" standalone="no"?>
<!-- Created with Inkscape (http://www.inkscape.org/) -->

<svg
   version="1.1"
   id="svg1"
   width="160"
   height="56"
   viewBox="0 0 160 56"
   sodipodi:docname="by-nc-nd-eu.eps"
   xmlns:inkscape="http://www.inkscape.org/namespaces/inkscape"
   xmlns:sodipodi="http://sodipodi.sourceforge.net/DTD/sodipodi-0.dtd"
   xmlns="http://www.w3.org/2000/svg"
   xmlns:svg="http://www.w3.org/2000/svg">
  <defs
     id="defs1" />
  <sodipodi:namedview
     id="namedview1"
     pagecolor="#ffffff"
     bordercolor="#000000"
     borderopacity="0.25"
     inkscape:showpageshadow="2"
     inkscape:pageopacity="0.0"
     inkscape:pagecheckerboard="0"
     inkscape:deskcolor="#d1d1d1">
    <inkscape:page
       x="0"
       y="0"
       inkscape:label="1"
       id="page1"
       width="160"
       height="56"
       margin="0"
       bleed="0" />
  </sodipodi:namedview>
  <g
     id="g1"
     inkscape:groupmode="layer"
     inkscape:label="1">
    <path
       id="path1"
       d="m 34.0938,415.543 1133.5362,-2.02 c 15.83,0 29.99,2.352 29.99,-31.597 L 1196.23,8.63281 H 5.48438 V 383.313 c 0,16.738 1.62109,32.23 28.60942,32.23"
       style="fill:#a7b1a6;fill-opacity:1;fill-rule:nonzero;stroke:none"
       transform="matrix(0.13333333,0,0,-0.13333333,0,56)" />
    <path
       id="path2"
       d="M 1177.54,420 H 22.4766 C 10.082,420 0,409.918 0,397.527 V 5.06641 C 0,2.26563 2.26953,0 5.07813,0 H 1194.92 c 2.81,0 5.08,2.26563 5.08,5.06641 V 397.527 C 1200,409.918 1189.92,420 1177.54,420 Z M 22.4766,409.848 H 1177.54 c 6.78,0 12.3,-5.524 12.3,-12.321 0,0 0,-157.902 0,-272.136 H 364.293 C 334.027,70.6836 275.723,33.5352 208.816,33.5352 141.895,33.5352 83.6094,70.6445 53.3711,125.391 H 10.1523 c 0,114.234 0,272.136 0,272.136 0,6.797 5.5313,12.321 12.3243,12.321"
       style="fill:#100f0d;fill-opacity:1;fill-rule:nonzero;stroke:none"
       transform="matrix(0.13333333,0,0,-0.13333333,0,56)" />
    <path
       id="path3"
       d="M 345.23,224.551 C 345.277,149.258 284.262,88.1836 208.965,88.1367 133.664,88.0859 72.582,149.094 72.5352,224.387 c 0,0.054 0,0.109 0,0.164 -0.0508,75.304 60.9608,136.371 136.2658,136.418 75.304,0.043 136.39,-60.957 136.429,-136.25 0,-0.051 0,-0.11 0,-0.168"
       style="fill:#ffffff;fill-opacity:1;fill-rule:nonzero;stroke:none"
       transform="matrix(0.13333333,0,0,-0.13333333,0,56)" />
    <path
       id="path4"
       d="m 319.727,335.598 c 30.23,-30.239 45.347,-67.254 45.347,-111.047 0,-43.797 -14.859,-80.418 -44.57,-109.883 -31.543,-31.0157 -68.809,-46.5235 -111.82,-46.5235 -42.489,0 -79.114,15.3711 -109.8598,46.1445 -30.7617,30.75 -46.1367,67.508 -46.1367,110.262 0,42.75 15.375,79.765 46.1367,111.047 29.9688,30.246 66.5978,45.359 109.8598,45.359 43.796,0 80.796,-15.113 111.043,-45.359 z M 119.176,315.266 C 93.6133,289.441 80.832,259.203 80.832,224.512 c 0,-34.688 12.6524,-64.668 37.945,-89.961 25.309,-25.293 55.422,-37.9416 90.371,-37.9416 34.95,0 65.325,12.7776 91.145,38.3316 24.516,23.731 36.773,53.575 36.773,89.571 0,35.718 -12.461,66.039 -37.375,90.941 -24.902,24.902 -55.082,37.36 -90.543,37.36 -35.46,0 -65.464,-12.52 -89.972,-37.547 z m 67.265,-75.496 c -3.902,8.515 -9.746,12.769 -17.55,12.769 -13.778,0 -20.668,-9.277 -20.668,-27.828 0,-18.559 6.89,-27.836 20.668,-27.836 9.109,0 15.605,4.52 19.507,13.574 l 19.114,-10.176 c -9.117,-16.171 -22.782,-24.277 -40.996,-24.277 -14.055,0 -25.309,4.317 -33.762,12.922 -8.465,8.621 -12.695,20.496 -12.695,35.633 0,14.883 4.367,26.687 13.082,35.437 8.714,8.746 19.586,13.117 32.597,13.117 19.262,0 33.047,-7.585 41.391,-22.75 z m 89.903,0 c -3.91,8.515 -9.645,12.769 -17.199,12.769 -14.063,0 -21.098,-9.277 -21.098,-27.828 0,-18.559 7.035,-27.836 21.098,-27.836 9.125,0 15.507,4.52 19.152,13.574 l 19.535,-10.176 c -9.098,-16.171 -22.738,-24.277 -40.93,-24.277 -14.031,0 -25.257,4.317 -33.711,12.922 -8.433,8.621 -12.664,20.496 -12.664,35.633 0,14.883 4.286,26.687 12.868,35.437 8.57,8.746 19.476,13.117 32.734,13.117 19.223,0 32.996,-7.585 41.305,-22.75 l -21.09,-10.585"
       style="fill:#100f0d;fill-opacity:1;fill-rule:nonzero;stroke:none"
       transform="matrix(0.13333333,0,0,-0.13333333,0,56)" />
    <path
       id="path5"
       d="m 480.934,92.5195 c 3.152,0 6.043,-0.2734 8.648,-0.832 2.598,-0.5547 4.82,-1.4609 6.684,-2.7305 1.855,-1.2617 3.289,-2.9492 4.32,-5.0507 1.016,-2.1094 1.535,-4.6875 1.535,-7.793 0,-3.3399 -0.758,-6.1133 -2.281,-8.332 -1.52,-2.2344 -3.762,-4.0508 -6.738,-5.4766 4.093,-1.1719 7.152,-3.2227 9.168,-6.1719 2.023,-2.9297 3.035,-6.4844 3.035,-10.625 0,-3.3398 -0.657,-6.2305 -1.953,-8.6719 -1.301,-2.4414 -3.059,-4.4336 -5.25,-5.9765 -2.204,-1.5508 -4.719,-2.6953 -7.532,-3.4375 -2.824,-0.7422 -5.715,-1.1133 -8.695,-1.1133 h -32.164 v 66.2109 h 31.223 z m -1.856,-26.7773 c 2.594,0 4.735,0.625 6.406,1.8555 1.668,1.2304 2.504,3.2343 2.504,6.0078 0,1.539 -0.281,2.8125 -0.836,3.7968 -0.558,0.9883 -1.297,1.7579 -2.23,2.3165 -0.934,0.5546 -2,0.9453 -3.203,1.1523 -1.207,0.2148 -2.465,0.3203 -3.766,0.3203 H 464.309 V 65.7422 Z m 0.844,-28.1055 c 1.426,0 2.789,0.1367 4.086,0.4219 1.301,0.2812 2.449,0.75 3.441,1.3828 0.992,0.6563 1.781,1.5352 2.371,2.6484 0.594,1.1133 0.883,2.5391 0.883,4.2657 0,3.3906 -0.957,5.8242 -2.883,7.2773 -1.922,1.4453 -4.449,2.168 -7.613,2.168 H 464.309 V 37.6367 h 15.613"
       style="fill:#ffffff;fill-opacity:1;fill-rule:nonzero;stroke:none"
       transform="matrix(0.13333333,0,0,-0.13333333,0,56)" />
    <path
       id="path6"
       d="m 507.871,92.5195 h 16.332 l 15.508,-26.1523 15.418,26.1523 h 16.234 L 546.777,51.7188 V 26.3086 h -14.593 v 25.7812 l -24.313,40.4297"
       style="fill:#ffffff;fill-opacity:1;fill-rule:nonzero;stroke:none"
       transform="matrix(0.13333333,0,0,-0.13333333,0,56)" />
    <path
       id="path7"
       d="m 725.176,92.5195 27.668,-44.414 H 753 v 44.414 h 13.66 V 26.3086 h -14.57 l -27.559,44.3359 h -0.183 V 26.3086 h -13.664 v 66.2109 h 14.492"
       style="fill:#ffffff;fill-opacity:1;fill-rule:nonzero;stroke:none"
       transform="matrix(0.13333333,0,0,-0.13333333,0,56)" />
    <path
       id="path8"
       d="m 821.953,74.8828 c -0.867,1.3945 -1.953,2.6172 -3.262,3.6719 -1.289,1.0469 -2.753,1.875 -4.394,2.4531 -1.641,0.5938 -3.359,0.8867 -5.149,0.8867 -3.277,0 -6.062,-0.6328 -8.355,-1.9062 -2.297,-1.2578 -4.145,-2.957 -5.559,-5.0938 -1.425,-2.1406 -2.461,-4.5625 -3.125,-7.2773 -0.644,-2.7149 -0.957,-5.5274 -0.957,-8.4375 0,-2.7852 0.313,-5.4883 0.957,-8.1055 0.664,-2.6367 1.7,-5 3.125,-7.0898 1.414,-2.1094 3.262,-3.7891 5.559,-5.0586 2.293,-1.2695 5.078,-1.9063 8.355,-1.9063 4.446,0 7.922,1.3594 10.434,4.086 2.508,2.7226 4.031,6.3086 4.59,10.7578 h 14.098 c -0.36,-4.1367 -1.329,-7.8867 -2.872,-11.2188 -1.543,-3.3593 -3.582,-6.1914 -6.121,-8.5547 -2.539,-2.3632 -5.507,-4.1523 -8.906,-5.3906 -3.398,-1.25 -7.148,-1.8633 -11.223,-1.8633 -5.078,0 -9.636,0.8789 -13.699,2.6446 -4.043,1.7578 -7.461,4.1992 -10.254,7.2851 -2.793,3.086 -4.922,6.7305 -6.406,10.8985 -1.484,4.1797 -2.246,8.6718 -2.246,13.5156 0,4.9414 0.762,9.5312 2.246,13.7695 1.484,4.2383 3.613,7.9414 6.406,11.0938 2.793,3.1523 6.211,5.625 10.254,7.4218 4.063,1.7969 8.621,2.6954 13.699,2.6954 3.645,0 7.102,-0.5274 10.344,-1.5821 3.242,-1.0547 6.153,-2.5898 8.711,-4.6093 2.578,-2 4.688,-4.4922 6.367,-7.461 1.66,-2.9687 2.715,-6.3867 3.145,-10.2148 h -14.102 c -0.234,1.6718 -0.8,3.2031 -1.66,4.5898"
       style="fill:#ffffff;fill-opacity:1;fill-rule:nonzero;stroke:none"
       transform="matrix(0.13333333,0,0,-0.13333333,0,56)" />
    <path
       id="path9"
       d="m 983.555,92.5195 27.665,-44.414 h 0.16 v 44.414 h 13.66 V 26.3086 h -14.57 l -27.56,44.3359 h -0.176 V 26.3086 h -13.671 v 66.2109 h 14.492"
       style="fill:#ffffff;fill-opacity:1;fill-rule:nonzero;stroke:none"
       transform="matrix(0.13333333,0,0,-0.13333333,0,56)" />
    <path
       id="path10"
       d="m 1066.41,92.5195 c 4.27,0 8.24,-0.6718 11.93,-2.0312 3.69,-1.3555 6.87,-3.4063 9.57,-6.125 2.69,-2.7149 4.8,-6.1211 6.31,-10.2031 1.52,-4.0821 2.28,-8.8672 2.28,-14.375 0,-4.8243 -0.62,-9.2657 -1.85,-13.3594 -1.25,-4.0625 -3.13,-7.5977 -5.63,-10.5664 -2.5,-2.9688 -5.63,-5.3008 -9.37,-7.0039 -3.75,-1.6992 -8.17,-2.5469 -13.24,-2.5469 h -28.61 v 66.2109 h 28.61 z m -1.02,-53.9453 c 2.1,0 4.14,0.3321 6.11,1.0156 1.98,0.6836 3.75,1.8047 5.3,3.3907 1.54,1.5703 2.79,3.6211 3.71,6.1523 0.93,2.5274 1.39,5.625 1.39,9.2656 0,3.3399 -0.32,6.3477 -0.96,9.0352 -0.66,2.6836 -1.72,4.9883 -3.21,6.9023 -1.48,1.9024 -3.45,3.3789 -5.89,4.3946 -2.45,1.0273 -5.46,1.5234 -9.05,1.5234 H 1052.4 V 38.5742 h 12.99 v 0"
       style="fill:#ffffff;fill-opacity:1;fill-rule:nonzero;stroke:none"
       transform="matrix(0.13333333,0,0,-0.13333333,0,56)" />
    <path
       id="path11"
       d="m 1146.68,270.188 c 0.05,-58.446 -47.3,-105.872 -105.76,-105.911 -58.459,-0.039 -105.893,47.305 -105.932,105.766 0,0.047 0,0.102 0,0.145 -0.039,58.449 47.317,105.871 105.772,105.917 58.46,0.047 105.88,-47.304 105.92,-105.757 0,-0.059 0,-0.102 0,-0.16"
       style="fill:#ffffff;fill-opacity:1;fill-rule:nonzero;stroke:none"
       transform="matrix(0.13333333,0,0,-0.13333333,0,56)" />
    <path
       id="path12"
       d="m 1039.18,386.137 c -32.12,0 -59.317,-11.196 -81.563,-33.617 -22.844,-23.188 -34.258,-50.625 -34.258,-82.332 0,-31.692 11.414,-58.938 34.258,-81.743 22.821,-22.8 50.023,-34.207 81.563,-34.207 31.93,0 59.6,11.504 83.02,34.492 22.05,21.84 33.09,49 33.09,81.458 0,32.48 -11.23,59.91 -33.67,82.332 -22.46,22.421 -49.94,33.617 -82.44,33.617 z m 0.28,-20.86 c 26.32,0 48.68,-9.281 67.06,-27.836 18.58,-18.355 27.86,-40.765 27.86,-67.253 0,-26.668 -9.09,-48.793 -27.27,-66.379 -19.17,-18.934 -41.72,-28.399 -67.65,-28.399 -25.92,0 -48.276,9.375 -67.046,28.125 -18.769,18.735 -28.156,40.961 -28.156,66.653 0,25.714 9.48,48.128 28.457,67.253 18.183,18.555 40.425,27.836 66.745,27.836"
       style="fill:#100f0d;fill-opacity:1;fill-rule:nonzero;stroke:none"
       transform="matrix(0.13333333,0,0,-0.13333333,0,56)" />
    <path
       id="path13"
       d="m 1083.14,297.676 h -84.292 v -19.969 h 84.292 z m 0,-37.27 h -84.292 v -19.961 h 84.292 v 19.961"
       style="fill:#100f0d;fill-opacity:1;fill-rule:nonzero;stroke:none"
       transform="matrix(0.13333333,0,0,-0.13333333,0,56)" />
    <path
       id="path14"
       d="m 517.641,375.207 c 59.308,0 107.386,-48.074 107.386,-107.375 0,-59.309 -48.078,-107.383 -107.386,-107.383 -59.309,0 -107.387,48.074 -107.387,107.383 0,59.301 48.078,107.375 107.387,107.375"
       style="fill:#ffffff;fill-opacity:1;fill-rule:nonzero;stroke:none"
       transform="matrix(0.13333333,0,0,-0.13333333,0,56)" />
    <path
       id="path15"
       d="m 548.723,298.902 c 0,4.141 -3.364,7.485 -7.493,7.485 h -47.429 c -4.133,0 -7.492,-3.344 -7.492,-7.485 v -47.425 h 13.226 v -56.164 h 35.949 v 56.164 h 13.239 v 47.425 0"
       style="fill:#100f0d;fill-opacity:1;fill-rule:nonzero;stroke:none"
       transform="matrix(0.13333333,0,0,-0.13333333,0,56)" />
    <path
       id="path16"
       d="m 517.516,345.078 c 8.961,0 16.218,-7.265 16.218,-16.223 0,-8.957 -7.257,-16.218 -16.218,-16.218 -8.961,0 -16.223,7.261 -16.223,16.218 0,8.958 7.262,16.223 16.223,16.223"
       style="fill:#100f0d;fill-opacity:1;fill-rule:nonzero;stroke:none"
       transform="matrix(0.13333333,0,0,-0.13333333,0,56)" />
    <path
       id="path17"
       d="m 517.363,386.137 c -32.113,0 -59.304,-11.199 -81.558,-33.621 -22.836,-23.184 -34.246,-50.629 -34.246,-82.321 0,-31.683 11.41,-58.945 34.246,-81.75 22.84,-22.8 50.031,-34.195 81.558,-34.195 31.93,0 59.61,11.492 83.028,34.5 22.05,21.82 33.086,48.98 33.086,81.445 0,32.473 -11.219,59.903 -33.672,82.321 -22.446,22.422 -49.922,33.621 -82.442,33.621 z m 0.305,-20.864 c 26.316,0 48.656,-9.277 67.039,-27.828 18.586,-18.351 27.871,-40.773 27.871,-67.25 0,-26.664 -9.094,-48.8 -27.289,-66.386 -19.156,-18.926 -41.703,-28.399 -67.621,-28.399 -25.945,0 -48.293,9.375 -67.063,28.113 -18.769,18.747 -28.156,40.969 -28.156,66.672 0,25.703 9.485,48.121 28.446,67.25 18.199,18.551 40.453,27.828 66.773,27.828"
       style="fill:#100f0d;fill-opacity:1;fill-rule:nonzero;stroke:none"
       transform="matrix(0.13333333,0,0,-0.13333333,0,56)" />
    <path
       id="path18"
       d="m 878.008,270.188 c 0.058,-55.008 -44.512,-99.622 -99.531,-99.661 -55,-0.039 -99.629,44.516 -99.668,99.516 0,0.059 0,0.102 0,0.145 -0.039,55.011 44.531,99.625 99.531,99.667 55.019,0.032 99.629,-44.523 99.668,-99.519 0,-0.047 0,-0.102 0,-0.148"
       style="fill:#ffffff;fill-opacity:1;fill-rule:nonzero;stroke:none"
       transform="matrix(0.13333333,0,0,-0.13333333,0,56)" />
    <path
       id="path19"
       d="m 860.703,352.543 c -22.449,22.422 -49.922,33.629 -82.441,33.629 -32.117,0 -59.305,-11.207 -81.563,-33.629 -22.832,-23.191 -34.25,-50.633 -34.25,-82.336 0,-31.695 11.418,-58.953 34.25,-81.75 22.832,-22.812 50.02,-34.219 81.563,-34.219 31.933,0 59.609,11.504 83.027,34.5 22.051,21.844 33.086,49 33.086,81.469 0,32.473 -11.223,59.922 -33.672,82.336 z M 846.191,203.809 c -19.16,-18.934 -41.711,-28.399 -67.636,-28.399 -25.938,0 -48.282,9.375 -67.051,28.125 -18.77,18.746 -28.164,40.973 -28.164,66.672 0,10.871 1.719,21.148 5.117,30.84 l 30.723,-13.602 h -2.207 v -13.781 h 10.871 c 0,-1.945 -0.199,-3.883 -0.199,-5.82 v -3.313 h -10.672 v -13.777 h 12.617 c 1.75,-10.293 5.625,-18.633 10.871,-25.242 10.867,-14.367 28.348,-22.133 47.371,-22.133 12.422,0 23.684,3.691 30.281,7.383 l -4.656,21.547 c -4.082,-2.137 -13.203,-5.047 -22.129,-5.047 -9.707,0 -18.828,2.91 -25.051,9.902 -2.906,3.297 -5.047,7.762 -6.394,13.59 h 42.207 l 59.961,-26.543 c -4.153,-7.363 -9.422,-14.168 -15.86,-20.402 z m -75.429,60.722 -0.254,0.196 0.437,-0.196 z m 36.113,9.133 h 1.73 v 13.781 H 775.73 l -13.347,5.91 c 1.152,2.583 2.5,4.899 4.094,6.704 6.023,7.386 14.558,10.488 23.875,10.488 8.554,0 16.503,-2.52 21.543,-4.656 l 5.449,22.132 c -7,3.102 -17.285,5.821 -29.121,5.821 -18.25,0 -33.789,-7.379 -44.844,-19.801 -2.461,-2.836 -4.59,-6.02 -6.524,-9.391 l -38.144,16.875 c 3.703,5.543 8.047,10.868 13.086,15.946 18.191,18.55 40.437,27.836 66.758,27.836 26.32,0 48.672,-9.286 67.058,-27.836 18.567,-18.368 27.864,-40.778 27.864,-67.266 0,-8.727 -0.997,-16.961 -2.95,-24.719 l -63.652,28.176"
       style="fill:#100f0d;fill-opacity:1;fill-rule:nonzero;stroke:none"
       transform="matrix(0.13333333,0,0,-0.13333333,0,56)" />
  </g>
</svg>
