<?xml version="1.0" encoding="UTF-8" standalone="no"?>
<!-- Created with Inkscape (http://www.inkscape.org/) -->

<svg
   version="1.1"
   id="svg1"
   width="160"
   height="56"
   viewBox="0 0 160 56"
   sodipodi:docname="by-nc-sa-eu.eps"
   xmlns:inkscape="http://www.inkscape.org/namespaces/inkscape"
   xmlns:sodipodi="http://sodipodi.sourceforge.net/DTD/sodipodi-0.dtd"
   xmlns="http://www.w3.org/2000/svg"
   xmlns:svg="http://www.w3.org/2000/svg">
  <defs
     id="defs1" />
  <sodipodi:namedview
     id="namedview1"
     pagecolor="#ffffff"
     bordercolor="#000000"
     borderopacity="0.25"
     inkscape:showpageshadow="2"
     inkscape:pageopacity="0.0"
     inkscape:pagecheckerboard="0"
     inkscape:deskcolor="#d1d1d1">
    <inkscape:page
       x="0"
       y="0"
       inkscape:label="1"
       id="page1"
       width="160"
       height="56"
       margin="0"
       bleed="0" />
  </sodipodi:namedview>
  <g
     id="g1"
     inkscape:groupmode="layer"
     inkscape:label="1">
    <path
       id="path1"
       d="m 34.082,415.473 1133.538,-2.016 c 15.84,0 30,2.356 30,-31.602 L 1196.23,8.5625 H 5.47266 V 383.242 c 0,16.742 1.62109,32.231 28.60934,32.231"
       style="fill:#a7b1a6;fill-opacity:1;fill-rule:nonzero;stroke:none"
       transform="matrix(0.13333333,0,0,-0.13333333,0,56)" />
    <path
       id="path2"
       d="M 1177.54,420 H 22.4766 C 10.082,420 0,409.918 0,397.527 V 5.06641 C 0,2.26563 2.26953,0 5.07422,0 H 1194.92 c 2.81,0 5.08,2.26563 5.08,5.06641 V 397.527 C 1200,409.918 1189.92,420 1177.54,420 Z M 22.4766,409.848 H 1177.54 c 6.78,0 12.3,-5.524 12.3,-12.321 0,0 0,-157.961 0,-272.207 H 364.281 C 334.023,70.6133 275.719,33.4688 208.809,33.4688 141.887,33.4688 83.5977,70.5859 53.3594,125.32 H 10.1523 c 0,114.246 0,272.207 0,272.207 0,6.797 5.5313,12.321 12.3243,12.321"
       style="fill:#100f0d;fill-opacity:1;fill-rule:nonzero;stroke:none"
       transform="matrix(0.13333333,0,0,-0.13333333,0,56)" />
    <path
       id="path3"
       d="M 345.219,224.488 C 345.27,149.188 284.258,88.125 208.957,88.0664 133.656,88.0273 72.5742,149.031 72.5234,224.32 c 0,0.059 0,0.11 0,0.168 -0.0468,75.297 60.9686,136.367 136.2656,136.414 75.313,0.043 136.391,-60.957 136.43,-136.25 0,-0.05 0,-0.109 0,-0.164"
       style="fill:#ffffff;fill-opacity:1;fill-rule:nonzero;stroke:none"
       transform="matrix(0.13333333,0,0,-0.13333333,0,56)" />
    <path
       id="path4"
       d="m 319.719,335.531 c 30.226,-30.226 45.347,-67.25 45.347,-111.043 0,-43.804 -14.855,-80.425 -44.574,-109.879 -31.543,-31.0152 -68.808,-46.5231 -111.82,-46.5231 -42.484,0 -79.109,15.3711 -109.8595,46.1331 -30.7617,30.761 -46.1367,67.511 -46.1367,110.269 0,42.746 15.375,79.766 46.1367,111.043 29.9725,30.246 66.5975,45.364 109.8595,45.364 43.801,0 80.805,-15.118 111.047,-45.364 z M 119.164,315.195 c -25.5585,-25.82 -38.3437,-56.058 -38.3437,-90.746 0,-34.683 12.6563,-64.676 37.9497,-89.957 25.308,-25.304 55.418,-37.949 90.371,-37.949 34.945,0 65.324,12.773 91.148,38.332 24.516,23.738 36.774,53.582 36.774,89.574 0,35.719 -12.461,66.035 -37.375,90.942 -24.903,24.898 -55.086,37.355 -90.547,37.355 -35.465,0 -65.469,-12.519 -89.977,-37.551 z m 67.266,-75.492 c -3.903,8.516 -9.746,12.777 -17.547,12.777 -13.781,0 -20.668,-9.281 -20.668,-27.835 0,-18.559 6.887,-27.829 20.668,-27.829 9.105,0 15.605,4.512 19.508,13.567 L 207.5,200.215 c -9.109,-16.192 -22.777,-24.285 -40.996,-24.285 -14.055,0 -25.309,4.304 -33.758,12.918 -8.465,8.613 -12.695,20.504 -12.695,35.64 0,14.875 4.363,26.684 13.078,35.434 8.719,8.746 19.586,13.121 32.598,13.121 19.269,0 33.046,-7.59 41.394,-22.75 z m 89.91,0 c -3.914,8.516 -9.652,12.777 -17.199,12.777 -14.063,0 -21.098,-9.281 -21.098,-27.835 0,-18.559 7.035,-27.829 21.098,-27.829 9.121,0 15.507,4.512 19.144,13.567 l 19.535,-10.168 c -9.09,-16.192 -22.738,-24.285 -40.925,-24.285 -14.036,0 -25.258,4.304 -33.711,12.918 -8.438,8.613 -12.664,20.504 -12.664,35.64 0,14.875 4.285,26.684 12.871,35.434 8.562,8.746 19.468,13.121 32.734,13.121 19.223,0 32.992,-7.59 41.301,-22.75 l -21.086,-10.59"
       style="fill:#100f0d;fill-opacity:1;fill-rule:nonzero;stroke:none"
       transform="matrix(0.13333333,0,0,-0.13333333,0,56)" />
    <path
       id="path5"
       d="m 517.637,375.137 c 59.304,0 107.383,-48.071 107.383,-107.371 0,-59.309 -48.079,-107.375 -107.383,-107.375 -59.313,0 -107.391,48.066 -107.391,107.375 0,59.3 48.078,107.371 107.391,107.371"
       style="fill:#ffffff;fill-opacity:1;fill-rule:nonzero;stroke:none"
       transform="matrix(0.13333333,0,0,-0.13333333,0,56)" />
    <path
       id="path6"
       d="m 548.715,298.832 c 0,4.141 -3.36,7.492 -7.492,7.492 h -47.43 c -4.137,0 -7.488,-3.351 -7.488,-7.492 v -47.426 h 13.226 v -56.16 h 35.949 v 56.16 h 13.235 v 47.426 0"
       style="fill:#100f0d;fill-opacity:1;fill-rule:nonzero;stroke:none"
       transform="matrix(0.13333333,0,0,-0.13333333,0,56)" />
    <path
       id="path7"
       d="m 517.512,345.012 c 8.953,0 16.218,-7.266 16.218,-16.223 0,-8.961 -7.265,-16.223 -16.218,-16.223 -8.961,0 -16.227,7.262 -16.227,16.223 0,8.957 7.266,16.223 16.227,16.223"
       style="fill:#100f0d;fill-opacity:1;fill-rule:nonzero;stroke:none"
       transform="matrix(0.13333333,0,0,-0.13333333,0,56)" />
    <path
       id="path8"
       d="m 517.359,386.074 c -32.113,0 -59.308,-11.207 -81.562,-33.625 -22.832,-23.187 -34.25,-50.633 -34.25,-82.32 0,-31.688 11.418,-58.941 34.25,-81.75 22.836,-22.793 50.027,-34.199 81.562,-34.199 31.93,0 59.606,11.496 83.024,34.492 22.058,21.836 33.086,48.988 33.086,81.457 0,32.469 -11.223,59.906 -33.668,82.32 -22.446,22.418 -49.922,33.625 -82.442,33.625 z m 0.297,-20.859 c 26.324,0 48.66,-9.285 67.039,-27.836 18.59,-18.356 27.883,-40.777 27.883,-67.25 0,-26.668 -9.101,-48.797 -27.297,-66.379 -19.156,-18.945 -41.703,-28.406 -67.625,-28.406 -25.937,0 -48.293,9.363 -67.058,28.113 -18.774,18.746 -28.157,40.969 -28.157,66.672 0,25.707 9.485,48.117 28.45,67.25 18.195,18.551 40.449,27.836 66.765,27.836"
       style="fill:#100f0d;fill-opacity:1;fill-rule:nonzero;stroke:none"
       transform="matrix(0.13333333,0,0,-0.13333333,0,56)" />
    <path
       id="path9"
       d="m 484.016,92.5195 c 3.152,0 6.035,-0.2734 8.629,-0.832 2.605,-0.5547 4.835,-1.4609 6.703,-2.7305 1.851,-1.2617 3.289,-2.9492 4.316,-5.0507 1.02,-2.1094 1.531,-4.6875 1.531,-7.793 0,-3.3399 -0.757,-6.1133 -2.281,-8.332 -1.512,-2.2344 -3.766,-4.0508 -6.73,-5.4766 4.093,-1.1719 7.152,-3.2227 9.168,-6.1719 2.023,-2.9414 3.027,-6.4844 3.027,-10.625 0,-3.3398 -0.649,-6.2305 -1.949,-8.6719 -1.301,-2.4414 -3.055,-4.4336 -5.258,-5.9765 -2.195,-1.5508 -4.707,-2.6953 -7.524,-3.4375 -2.824,-0.7422 -5.714,-1.1133 -8.699,-1.1133 h -32.156 v 66.2109 h 31.223 z m -1.868,-26.7773 c 2.602,0 4.739,0.625 6.407,1.8555 1.679,1.2304 2.515,3.2343 2.515,6.0078 0,1.539 -0.285,2.8125 -0.836,3.7968 -0.566,0.9883 -1.304,1.7579 -2.234,2.3165 -0.93,0.5546 -2,0.9453 -3.199,1.1523 -1.215,0.2148 -2.465,0.3203 -3.77,0.3203 H 467.387 V 65.7422 Z m 0.856,-28.1055 c 1.426,0 2.781,0.1367 4.086,0.4219 1.301,0.2812 2.441,0.75 3.441,1.3828 0.992,0.6563 1.778,1.5352 2.367,2.6484 0.582,1.1133 0.887,2.5391 0.887,4.2657 0,3.3906 -0.965,5.8242 -2.883,7.2773 -1.922,1.4453 -4.464,2.168 -7.621,2.168 H 467.387 V 37.6367 h 15.617"
       style="fill:#ffffff;fill-opacity:1;fill-rule:nonzero;stroke:none"
       transform="matrix(0.13333333,0,0,-0.13333333,0,56)" />
    <path
       id="path10"
       d="m 510.953,92.5195 h 16.32 l 15.508,-26.1523 15.422,26.1523 h 16.238 L 549.848,51.7188 V 26.3086 h -14.594 v 25.7812 l -24.301,40.4297"
       style="fill:#ffffff;fill-opacity:1;fill-rule:nonzero;stroke:none"
       transform="matrix(0.13333333,0,0,-0.13333333,0,56)" />
    <path
       id="path11"
       d="m 984.402,42.6758 c 0.813,-1.543 1.868,-2.793 3.196,-3.75 1.328,-0.9649 2.882,-1.6797 4.675,-2.1367 1.79,-0.4727 3.633,-0.6953 5.559,-0.6953 1.289,0 2.678,0.0976 4.158,0.3242 1.48,0.2148 2.87,0.6328 4.16,1.2578 1.29,0.6055 2.37,1.4648 3.24,2.5508 0.86,1.0742 1.29,2.4492 1.29,4.1211 0,1.7968 -0.56,3.2421 -1.72,4.3515 -1.13,1.125 -2.63,2.043 -4.48,2.7852 -1.84,0.7422 -3.95,1.3867 -6.296,1.9531 -2.344,0.5586 -4.727,1.1719 -7.129,1.8555 -2.481,0.625 -4.883,1.3789 -7.227,2.2656 -2.344,0.8984 -4.453,2.0625 -6.308,3.4883 -1.836,1.414 -3.34,3.1914 -4.473,5.3203 -1.152,2.1406 -1.719,4.7266 -1.719,7.7539 0,3.3984 0.723,6.3477 2.168,8.8594 1.453,2.5 3.359,4.5859 5.703,6.2695 2.344,1.668 5,2.8984 7.969,3.6992 2.969,0.8125 5.937,1.211 8.887,1.211 3.476,0 6.795,-0.3907 9.965,-1.1719 3.18,-0.7617 6.01,-2.0313 8.48,-3.75 2.47,-1.7383 4.44,-3.9453 5.89,-6.6406 1.45,-2.6954 2.17,-5.9571 2.17,-9.7852 h -14.12 c -0.13,1.9727 -0.54,3.6133 -1.25,4.9023 -0.71,1.3086 -1.64,2.3243 -2.81,3.0665 -1.18,0.7421 -2.52,1.2695 -4.02,1.5742 -1.505,0.3125 -3.153,0.4648 -4.938,0.4648 -1.164,0 -2.336,-0.125 -3.508,-0.3711 -1.172,-0.2422 -2.226,-0.6719 -3.184,-1.2969 -0.957,-0.625 -1.738,-1.3867 -2.351,-2.3242 -0.617,-0.9297 -0.93,-2.0976 -0.93,-3.5156 0,-1.3086 0.254,-2.3633 0.742,-3.1562 0.489,-0.8086 1.465,-1.5508 2.918,-2.2344 1.457,-0.6719 3.457,-1.3594 6.02,-2.0313 2.566,-0.6836 5.921,-1.5625 10.061,-2.5976 1.23,-0.2539 2.95,-0.7032 5.12,-1.3555 2.2,-0.6562 4.38,-1.6719 6.55,-3.0977 2.16,-1.4375 4.02,-3.3398 5.6,-5.7109 1.57,-2.375 2.35,-5.4219 2.35,-9.1445 0,-3.0235 -0.59,-5.8399 -1.76,-8.4453 -1.17,-2.5977 -2.92,-4.8438 -5.24,-6.7188 -2.32,-1.8945 -5.19,-3.3594 -8.63,-4.4023 -3.42,-1.0664 -7.39,-1.5821 -11.914,-1.5821 -3.653,0 -7.188,0.4571 -10.625,1.3477 -3.426,0.9062 -6.453,2.3125 -9.082,4.2266 -2.625,1.9257 -4.707,4.375 -6.27,7.3437 -1.543,2.9688 -2.285,6.4961 -2.219,10.5859 h 14.133 c 0,-2.2265 0.391,-4.121 1.199,-5.664"
       style="fill:#ffffff;fill-opacity:1;fill-rule:nonzero;stroke:none"
       transform="matrix(0.13333333,0,0,-0.13333333,0,56)" />
    <path
       id="path12"
       d="m 1066.46,92.5195 24.77,-66.2109 h -15.12 l -5.02,14.7461 h -24.76 l -5.2,-14.7461 h -14.65 l 25.04,66.2109 z m 0.84,-40.5937 -8.35,24.2734 h -0.2 l -8.61,-24.2734 h 17.16"
       style="fill:#ffffff;fill-opacity:1;fill-rule:nonzero;stroke:none"
       transform="matrix(0.13333333,0,0,-0.13333333,0,56)" />
    <path
       id="path13"
       d="m 725.176,92.5195 27.676,-44.414 h 0.156 v 44.414 H 766.66 V 26.3086 h -14.558 l -27.571,44.3359 h -0.176 V 26.3086 h -13.671 v 66.2109 h 14.492"
       style="fill:#ffffff;fill-opacity:1;fill-rule:nonzero;stroke:none"
       transform="matrix(0.13333333,0,0,-0.13333333,0,56)" />
    <path
       id="path14"
       d="m 821.953,74.8828 c -0.859,1.3945 -1.953,2.6172 -3.242,3.6719 -1.309,1.0469 -2.773,1.875 -4.414,2.4531 -1.641,0.5938 -3.359,0.8867 -5.137,0.8867 -3.281,0 -6.074,-0.6328 -8.359,-1.9062 -2.293,-1.2578 -4.141,-2.957 -5.567,-5.0938 -1.425,-2.1406 -2.461,-4.5625 -3.105,-7.2773 -0.652,-2.7149 -0.977,-5.5274 -0.977,-8.4375 0,-2.7852 0.325,-5.4883 0.977,-8.1055 0.644,-2.6367 1.68,-5 3.105,-7.0976 1.426,-2.1016 3.274,-3.7813 5.567,-5.0508 2.285,-1.2695 5.078,-1.9063 8.359,-1.9063 4.434,0 7.93,1.3594 10.43,4.086 2.5,2.7226 4.035,6.3086 4.59,10.7578 h 14.101 c -0.371,-4.1367 -1.328,-7.8867 -2.871,-11.2188 -1.543,-3.3593 -3.594,-6.1914 -6.133,-8.5547 -2.527,-2.3632 -5.5,-4.1523 -8.906,-5.3906 -3.398,-1.25 -7.141,-1.8633 -11.211,-1.8633 -5.078,0 -9.648,0.8789 -13.699,2.6446 -4.043,1.7578 -7.473,4.1992 -10.254,7.2773 -2.785,3.0938 -4.934,6.7383 -6.418,10.9063 -1.484,4.1797 -2.226,8.6718 -2.226,13.5156 0,4.9414 0.742,9.5312 2.226,13.7695 1.484,4.2383 3.633,7.9414 6.418,11.0938 2.781,3.1523 6.211,5.625 10.254,7.4218 4.051,1.7969 8.621,2.6954 13.699,2.6954 3.645,0 7.09,-0.5274 10.332,-1.5821 3.254,-1.0547 6.16,-2.5898 8.723,-4.6093 2.566,-2 4.683,-4.4922 6.355,-7.461 1.668,-2.9687 2.715,-6.3867 3.157,-10.2148 h -14.102 c -0.246,1.6718 -0.812,3.2031 -1.672,4.5898"
       style="fill:#ffffff;fill-opacity:1;fill-rule:nonzero;stroke:none"
       transform="matrix(0.13333333,0,0,-0.13333333,0,56)" />
    <path
       id="path15"
       d="m 1145.8,270.195 c 0.04,-58.453 -47.32,-105.879 -105.78,-105.918 -58.457,-0.039 -105.879,47.305 -105.918,105.774 0,0.039 0,0.094 0,0.144 -0.039,58.45 47.316,105.868 105.758,105.914 58.47,0.043 105.88,-47.308 105.94,-105.757 0,-0.059 0,-0.102 0,-0.157"
       style="fill:#ffffff;fill-opacity:1;fill-rule:nonzero;stroke:none"
       transform="matrix(0.13333333,0,0,-0.13333333,0,56)" />
    <path
       id="path16"
       d="m 1039.19,386.145 c -32.12,0 -59.315,-11.211 -81.561,-33.622 -22.832,-23.191 -34.258,-50.636 -34.258,-82.328 0,-31.695 11.426,-58.941 34.258,-81.75 22.82,-22.8 50.011,-34.207 81.561,-34.207 31.92,0 59.6,11.504 83.02,34.492 22.05,21.844 33.08,49 33.08,81.465 0,32.461 -11.21,59.907 -33.67,82.328 -22.44,22.411 -49.92,33.622 -82.43,33.622 z m 0.28,-20.872 c 26.33,0 48.67,-9.277 67.06,-27.832 18.58,-18.355 27.86,-40.761 27.86,-67.246 0,-26.672 -9.09,-48.793 -27.28,-66.386 -19.16,-18.934 -41.71,-28.399 -67.64,-28.399 -25.92,0 -48.279,9.375 -67.048,28.113 -18.758,18.747 -28.145,40.965 -28.145,66.672 0,25.703 9.473,48.121 28.438,67.246 18.191,18.555 40.445,27.832 66.755,27.832"
       style="fill:#100f0d;fill-opacity:1;fill-rule:nonzero;stroke:none"
       transform="matrix(0.13333333,0,0,-0.13333333,0,56)" />
    <path
       id="path17"
       d="m 987.793,286.555 c 4.621,29.175 25.157,44.773 50.897,44.773 37.01,0 59.58,-26.859 59.58,-62.676 0,-34.957 -24.01,-62.097 -60.16,-62.097 -24.87,0 -47.141,15.3 -51.196,45.34 h 29.216 c 0.87,-15.59 11,-21.082 25.45,-21.082 16.49,0 27.19,15.304 27.19,38.699 0,24.558 -9.25,37.551 -26.61,37.551 -12.73,0 -23.71,-4.622 -26.03,-20.508 l 8.5,0.054 -23,-22.996 -22.997,22.996 9.16,-0.054"
       style="fill:#100f0d;fill-opacity:1;fill-rule:nonzero;stroke:none"
       transform="matrix(0.13333333,0,0,-0.13333333,0,56)" />
    <path
       id="path18"
       d="m 878.02,270.094 c 0.046,-55.004 -44.524,-99.625 -99.536,-99.664 -55.007,-0.039 -99.629,44.519 -99.668,99.515 0,0.059 0,0.106 0,0.149 -0.039,55.008 44.524,99.625 99.536,99.668 55.007,0.035 99.628,-44.524 99.668,-99.516 0,-0.051 0,-0.105 0,-0.152"
       style="fill:#ffffff;fill-opacity:1;fill-rule:nonzero;stroke:none"
       transform="matrix(0.13333333,0,0,-0.13333333,0,56)" />
    <path
       id="path19"
       d="m 860.703,352.445 c -22.441,22.43 -49.922,33.629 -82.433,33.629 -32.125,0 -59.305,-11.199 -81.571,-33.629 -22.832,-23.191 -34.238,-50.632 -34.238,-82.332 0,-31.699 11.406,-58.957 34.238,-81.754 22.844,-22.812 50.02,-34.218 81.571,-34.218 31.925,0 59.601,11.504 83.019,34.504 22.063,21.843 33.098,48.996 33.098,81.468 0,32.469 -11.223,59.922 -33.684,82.332 z M 846.191,203.723 c -19.16,-18.938 -41.699,-28.41 -67.628,-28.41 -25.934,0 -48.29,9.375 -67.059,28.125 -18.77,18.75 -28.152,40.972 -28.152,66.675 0,10.867 1.714,21.149 5.105,30.832 l 30.731,-13.597 h -2.215 V 273.57 h 10.879 c 0,-1.949 -0.196,-3.886 -0.196,-5.824 v -3.308 h -10.683 v -13.786 h 12.617 c 1.758,-10.285 5.637,-18.632 10.879,-25.238 10.871,-14.363 28.34,-22.133 47.363,-22.133 12.434,0 23.691,3.692 30.293,7.383 l -4.668,21.547 c -4.082,-2.137 -13.191,-5.047 -22.129,-5.047 -9.707,0 -18.828,2.91 -25.039,9.902 -2.91,3.301 -5.051,7.77 -6.406,13.586 h 42.207 l 59.973,-26.543 c -4.153,-7.359 -9.426,-14.164 -15.872,-20.386 z m -75.421,60.715 -0.262,0.195 0.449,-0.195 z m 36.105,9.132 h 1.738 v 13.778 h -32.871 l -13.359,5.91 c 1.152,2.582 2.512,4.894 4.101,6.703 6.016,7.394 14.551,10.488 23.875,10.488 8.547,0 16.496,-2.519 21.543,-4.656 l 5.442,22.133 c -6.992,3.097 -17.285,5.82 -29.121,5.82 -18.243,0 -33.782,-7.379 -44.844,-19.801 -2.461,-2.836 -4.59,-6.019 -6.524,-9.39 l -38.132,16.875 c 3.699,5.543 8.035,10.867 13.074,15.945 18.203,18.555 40.449,27.836 66.766,27.836 26.32,0 48.664,-9.281 67.062,-27.836 18.563,-18.359 27.852,-40.777 27.852,-67.262 0,-8.73 -0.997,-16.965 -2.95,-24.718 l -63.652,28.175"
       style="fill:#100f0d;fill-opacity:1;fill-rule:nonzero;stroke:none"
       transform="matrix(0.13333333,0,0,-0.13333333,0,56)" />
  </g>
</svg>
