<?xml version="1.0" encoding="UTF-8" standalone="no"?>
<!-- Created with Inkscape (http://www.inkscape.org/) -->

<svg
   version="1.1"
   id="svg1"
   width="363.35999"
   height="157.42667"
   viewBox="0 0 363.35999 157.42667"
   sodipodi:docname="logo_amu.eps"
   xmlns:inkscape="http://www.inkscape.org/namespaces/inkscape"
   xmlns:sodipodi="http://sodipodi.sourceforge.net/DTD/sodipodi-0.dtd"
   xmlns="http://www.w3.org/2000/svg"
   xmlns:svg="http://www.w3.org/2000/svg">
  <defs
     id="defs1" />
  <sodipodi:namedview
     id="namedview1"
     pagecolor="#ffffff"
     bordercolor="#000000"
     borderopacity="0.25"
     inkscape:showpageshadow="2"
     inkscape:pageopacity="0.0"
     inkscape:pagecheckerboard="0"
     inkscape:deskcolor="#d1d1d1">
    <inkscape:page
       x="0"
       y="0"
       inkscape:label="1"
       id="page1"
       width="363.35999"
       height="157.42667"
       margin="0"
       bleed="0" />
  </sodipodi:namedview>
  <g
     id="g1"
     inkscape:groupmode="layer"
     inkscape:label="1">
    <g
       id="group-R5">
      <path
         id="path2"
         d="M 462.801,559.102 254.199,513.5 c -80.097,-17.898 -127.097,-40.102 -127.097,-116 0,-62.199 53.898,-100.801 124.296,-100.801 143.602,0 211.301,71.801 211.301,178.199 v 84.301 0 z m 203,-345.301 c -23.5,-4.102 -48.301,-5.5 -77.301,-5.5 -76,0 -117.398,35.898 -124.301,107.699 -38.699,-78.699 -116,-118.801 -232,-118.801 C 116.199,197.199 0,265 0,396.199 0,538.5 110.5,584.102 234.801,607.5 l 227.898,44.199 c 0,67.699 -2.801,99.403 -23.5,125.699 C 421.199,805 374.301,823 313.5,823 193.301,823 145,778.801 145,673.801 L 23.5,690.398 c 4.1016,82.903 31.8008,145 85.602,179.602 49.699,33.102 122.898,51.102 211.296,51.102 172.704,0 262.403,-77.301 262.403,-227.903 V 363.102 c 0,-40.102 1.398,-52.5 40.097,-52.5 11,0 24.903,1.398 40.102,5.5 l 2.801,-102.204 v 0 -0.097"
         style="fill:#231f20;fill-opacity:1;fill-rule:nonzero;stroke:none"
         transform="matrix(0.13333333,0,0,-0.13333333,0,157.42667)" />
      <path
         id="path3"
         d="m 1805.2,213.801 h -127.1 v 406.097 c 0,81.5 -1.4,118.801 -41.4,160.204 -33.2,33.199 -73.2,38.699 -116,38.699 -40.1,0 -74.6,-12.403 -102.2,-37.301 C 1378.4,747 1355,695.898 1355,595 V 213.801 h -127.1 v 406.097 c 0,81.5 -1.4,118.801 -41.4,160.204 -33.1,33.199 -76,38.699 -116,38.699 -40,0 -73.199,-12.403 -102.199,-37.301 -38.699,-34.5 -63.5,-85.602 -63.5,-186.5 V 213.801 H 781.898 V 904.5 h 122.903 v -105 c 9.699,26.199 27.597,49.699 51.097,69.102 42.801,34.5 96.702,52.5 161.602,52.5 109.1,0 187.8,-52.5 221,-146.403 15.2,37.301 34.5,64.903 66.3,93.903 38.7,33.199 84.3,52.5 161.6,52.5 154.7,0 238.9,-88.403 238.9,-259.704 v -447.5 0 l -0.1,-0.097"
         style="fill:#231f20;fill-opacity:1;fill-rule:nonzero;stroke:none"
         transform="matrix(0.13333333,0,0,-0.13333333,0,157.42667)" />
      <path
         id="path4"
         d="m 1969.6,1180.7 h 125.7 V 532.898 c 0,-149.199 113.3,-225.097 251.4,-225.097 138.1,0 252.8,76 252.8,225.097 V 1180.7 h 125.7 V 532.898 c 0,-216.898 -134,-335.597 -378.5,-335.597 -244.5,0 -377.1,118.801 -377.1,335.597 v 647.802 0 0"
         style="fill:#231f20;fill-opacity:1;fill-rule:nonzero;stroke:none"
         transform="matrix(0.13333333,0,0,-0.13333333,0,157.42667)" />
      <path
         id="path5"
         d="m 94.6992,53.5 -14,37.3984 c -2.8008,7.5 -5.0976,14.2036 -7.0976,19.9996 H 73.3984 C 71.8008,105.801 69.5,99.1992 66.5,90.8984 L 52.6992,53.5 H 94.8008 Z M 100,39.3008 H 47.3008 L 33.6016,2.19922 h -17 L 65.1992,126.398 h 17 L 130.602,2.19922 H 113.699 L 99.8984,39.3008 v 0 H 100"
         style="fill:#231f20;fill-opacity:1;fill-rule:nonzero;stroke:none"
         transform="matrix(0.13333333,0,0,-0.13333333,0,157.42667)" />
      <path
         id="path6"
         d="m 142.898,90.8984 h 16 V 2.19922 h -16 z m 0,35.4996 h 16 v -18.796 h -16 v 18.796"
         style="fill:#231f20;fill-opacity:1;fill-rule:nonzero;stroke:none"
         transform="matrix(0.13333333,0,0,-0.13333333,0,157.42667)" />
      <path
         id="path7"
         d="M 254.5,2.19922 H 237.301 L 222.602,23.1016 c -2.5,3.6992 -5,7.5976 -7.602,12.0976 l -2,3 C 208.898,31.6016 205.699,26.5 203.199,23.1016 L 188.5,2.19922 H 171.301 L 204.5,48.5 174,90.8984 h 17.199 l 14.403,-20 7.5,-11.5 1.597,2.3008 c 1.403,2.3008 3.403,5.3008 6,9.1992 l 14,20 h 17.403 L 221.199,48.5 254.602,2.19922 H 254.5"
         style="fill:#231f20;fill-opacity:1;fill-rule:nonzero;stroke:none"
         transform="matrix(0.13333333,0,0,-0.13333333,0,157.42667)" />
      <path
         id="path8"
         d="m 781.699,126.398 h 23.199 l 26.301,-70.2964 c 5.102,-13.7032 9.403,-25.5 12.801,-36 h 0.199 c 3.903,11.8984 8.199,23.7968 12.602,36 l 26.301,70.2964 h 23.199 V 2.19922 H 890.5 V 77.3008 c 0,3 0,7.5 0.199,12.8984 l 0.699,15.4028 h -0.199 c -4.597,-13.3012 -8,-22.9028 -10.097,-28.4028 L 852.199,2.10156 H 835.898 L 807,77.1992 c -1.602,4.1016 -5,13.5 -10.102,28.4028 h -0.199 l 0.5,-15.4028 c 0.199,-5.5 0.403,-9.8984 0.403,-12.8984 V 2.19922 h -15.801 v 124.19878 0 h -0.102"
         style="fill:#231f20;fill-opacity:1;fill-rule:nonzero;stroke:none"
         transform="matrix(0.13333333,0,0,-0.13333333,0,157.42667)" />
      <path
         id="path9"
         d="M 985.301,46.6016 958.5,40.6992 c -10.301,-2.3008 -16.301,-5.0976 -16.301,-14.8984 0,-8 6.903,-13 16,-13 18.5,0 27.199,9.1992 27.199,22.8984 V 46.5 h -0.097 z M 1011.4,2.19922 c -3,-0.5 -6.2,-0.69922 -9.9,-0.69922 -9.801,0 -15.102,4.60156 -16,13.8008 C 980.5,5.19922 970.602,0 955.699,0 c -14.898,0 -29.801,8.69922 -29.801,25.6016 0,18.2968 14.204,24.0976 30.204,27.0976 l 29.296,5.6992 c 0,8.7032 -0.398,12.8008 -3,16.2032 -2.296,3.5976 -8.296,5.8984 -16.097,5.8984 -15.403,0 -21.699,-5.6992 -21.699,-19.1992 L 929,63.3984 C 929.5,74.1016 933.102,82 940,86.5 c 6.398,4.3008 15.801,6.6016 27.102,6.6016 22.199,0 33.698,-9.9024 33.698,-29.3008 V 21.3984 c 0,-5.0976 0.2,-6.6992 5.1,-6.6992 1.4,0 3.2,0.1992 5.1,0.6992 l 0.4,-13.09762 v 0 -0.10156"
         style="fill:#231f20;fill-opacity:1;fill-rule:nonzero;stroke:none"
         transform="matrix(0.13333333,0,0,-0.13333333,0,157.42667)" />
      <path
         id="path10"
         d="m 1075.5,78 c -0.7,0.1992 -2.1,0.1992 -4.1,0.1992 -18.1,0 -29.1,-6.1992 -29.1,-33.8984 V 2.19922 h -16 V 90.8984 h 16 V 75.3008 c 2.5,8.6992 13.5,16.5 27.7,17.5976 0.9,0.2032 2.8,0.2032 5.9,0.2032 L 1075.5,78 v 0 0"
         style="fill:#231f20;fill-opacity:1;fill-rule:nonzero;stroke:none"
         transform="matrix(0.13333333,0,0,-0.13333333,0,157.42667)" />
      <path
         id="path11"
         d="m 1095,32.6992 c 0,-12.3984 8.7,-20.0976 22.7,-20.0976 14.7,0 21.8,5 21.8,14.3984 -0.7,8.1992 -8,9.8008 -21.5,13 l -7.1,1.6016 c -17.6,4.7968 -27.7,8.5 -28.6,25.5976 0,17.6992 16.2,25.9024 32.8,25.9024 20.6,0 35.5,-8.7032 37.1,-29.1016 l -14.9,-2.3008 c -0.2,12.1016 -8.2,18.8008 -22.4,18.8008 -8.9,0 -17.7,-4.3984 -17.7,-12.1992 0.9,-7.8008 8,-9.8008 21.3,-12.8008 l 2.1,-0.5 c 7.6,-1.6016 13.5,-3.1992 17.9,-4.8008 9.1,-3 16,-9.5976 16,-22.1992 0,-9.8984 -3.5,-17 -10.5,-21.5 -6.9,-4.30078 -15.6,-6.398437 -26.1,-6.398437 -20.8,0 -37.6,9.796877 -37.6,31.199237 l 14.6,1.3984 h 0.1 v 0"
         style="fill:#231f20;fill-opacity:1;fill-rule:nonzero;stroke:none"
         transform="matrix(0.13333333,0,0,-0.13333333,0,157.42667)" />
      <path
         id="path12"
         d="m 1184.9,54.8008 h 50.8 c -0.2,5 -2,11.6992 -4.8,15.8008 -4.4,6.5976 -11,9.5976 -20.8,9.5976 -9.8,0 -17.4,-3.6992 -20.9,-9.5976 -2.8,-5 -4.1,-10.6016 -4.3,-15.8008 z m 67.1,-13 h -67.3 c 0.5,-19.6992 8.7,-28.9024 25.2,-28.9024 15.1,0 23.2,6.4024 25.4,19.9024 l 15.4,-1.1992 C 1246.6,11 1232.8,0.199219 1210.1,0.199219 c -13.8,0 -24.5,4.300781 -31.9,12.902381 -7.3,8 -10.8,19.2968 -10.8,33.6992 0,13.3008 3.9,24.6992 11.2,33 7.8,8.6992 18.6,13.3008 31.4,13.3008 14.2,0 27.5,-6.2032 34.6,-17.6016 4.8,-7.6016 7.6,-18.6016 7.6,-30 0,-1.6016 0,-2.8008 -0.2,-3.6992"
         style="fill:#231f20;fill-opacity:1;fill-rule:nonzero;stroke:none"
         transform="matrix(0.13333333,0,0,-0.13333333,0,157.42667)" />
      <path
         id="path13"
         d="m 1270.1,90.8984 h 16 V 2.19922 h -16 z m 0,35.4996 h 16 v -18.796 h -16 v 18.796"
         style="fill:#231f20;fill-opacity:1;fill-rule:nonzero;stroke:none"
         transform="matrix(0.13333333,0,0,-0.13333333,0,157.42667)" />
      <path
         id="path14"
         d="m 1309.4,126.398 h 16 V 2.19922 h -16 V 126.398"
         style="fill:#231f20;fill-opacity:1;fill-rule:nonzero;stroke:none"
         transform="matrix(0.13333333,0,0,-0.13333333,0,157.42667)" />
      <path
         id="path15"
         d="m 1348.8,126.398 h 16 V 2.19922 h -16 V 126.398"
         style="fill:#231f20;fill-opacity:1;fill-rule:nonzero;stroke:none"
         transform="matrix(0.13333333,0,0,-0.13333333,0,157.42667)" />
      <path
         id="path16"
         d="m 1400.6,54.8008 h 50.8 c -0.2,5 -2,11.6992 -4.8,15.8008 -4.4,6.5976 -11,9.5976 -20.8,9.5976 -9.8,0 -17.4,-3.6992 -20.9,-9.5976 -2.8,-5 -4.1,-10.6016 -4.3,-15.8008 v 0 z m 67.1,-13 h -67.3 c 0.5,-19.6992 8.7,-28.9024 25.2,-28.9024 15.1,0 23.2,6.4024 25.4,19.9024 l 15.4,-1.1992 C 1462.3,11 1448.5,0.199219 1425.8,0.199219 c -13.8,0 -24.5,4.300781 -31.9,12.902381 -7.3,8 -10.8,19.2968 -10.8,33.6992 0,13.3008 3.9,24.6992 11.2,33 7.8,8.6992 18.6,13.3008 31.4,13.3008 14.2,0 27.5,-6.2032 34.6,-17.6016 4.8,-7.6016 7.6,-18.6016 7.6,-30 0,-1.6016 0,-2.8008 -0.2,-3.6992 v 0 0"
         style="fill:#231f20;fill-opacity:1;fill-rule:nonzero;stroke:none"
         transform="matrix(0.13333333,0,0,-0.13333333,0,157.42667)" />
      <path
         id="path17"
         d="m 1969.5,126.398 h 16.2 V 43.1992 c 0,-19.1992 14.6,-28.8984 32.3,-28.8984 17.7,0 32.5,9.8008 32.5,28.8984 v 83.1988 h 16.1 V 43.1992 c 0,-27.8984 -17.2,-43.097637 -48.6,-43.097637 -31.4,0 -48.4,15.296837 -48.4,43.097637 v 83.1988 0 h -0.1"
         style="fill:#231f20;fill-opacity:1;fill-rule:nonzero;stroke:none"
         transform="matrix(0.13333333,0,0,-0.13333333,0,157.42667)" />
      <path
         id="path18"
         d="m 2165.9,2.19922 h -16.5 V 54 c 0,10.6016 -0.2,14.8984 -5.3,20.6016 -4.4,4.3984 -9.2,5.0976 -15.8,5.0976 -5.9,0 -11.2,-2 -16,-6 -4.8,-3.8984 -7.1,-11.3984 -7.1,-22.5 V 2.19922 h -16 V 90.8984 h 16 V 77.1992 c 4.6,10.5 13.7,15.8008 27.3,15.8008 11.5,0 20,-3 26.4,-9.8984 6.6,-7.6016 6.9,-16.1016 6.9,-28.2032 V 2.19922 h 0.1 v 0"
         style="fill:#231f20;fill-opacity:1;fill-rule:nonzero;stroke:none"
         transform="matrix(0.13333333,0,0,-0.13333333,0,157.42667)" />
      <path
         id="path19"
         d="m 2188.4,90.8984 h 16 V 2.19922 h -16 z m 0,35.4996 h 16 v -18.796 h -16 v 18.796"
         style="fill:#231f20;fill-opacity:1;fill-rule:nonzero;stroke:none"
         transform="matrix(0.13333333,0,0,-0.13333333,0,157.42667)" />
      <path
         id="path20"
         d="m 2217.4,90.8984 h 17 l 15.8,-46 c 2,-5.0976 4.8,-14.5976 8.9,-28 3.2,10.7032 6.2,20.1016 9.1,28 l 16,46 h 16.7 L 2267.7,2.19922 h -17 l -33.2,88.69918 v 0 h -0.1"
         style="fill:#231f20;fill-opacity:1;fill-rule:nonzero;stroke:none"
         transform="matrix(0.13333333,0,0,-0.13333333,0,157.42667)" />
      <path
         id="path21"
         d="m 2322.5,54.8008 h 50.8 c -0.2,5 -2,11.6992 -4.8,15.8008 -4.4,6.5976 -11,9.5976 -20.8,9.5976 -9.8,0 -17.4,-3.6992 -20.9,-9.5976 -2.8,-5 -4.1,-10.6016 -4.3,-15.8008 v 0 z m 67.1,-13 h -67.3 c 0.5,-19.6992 8.7,-28.9024 25.2,-28.9024 15.1,0 23.3,6.4024 25.4,19.9024 l 15.4,-1.1992 C 2384.2,11 2370.4,0.199219 2347.7,0.199219 c -13.8,0 -24.5,4.300781 -31.9,12.902381 -7.3,8 -10.8,19.2968 -10.8,33.6992 0,13.3008 3.9,24.6992 11.2,33 7.8,8.6992 18.6,13.3008 31.4,13.3008 14.2,0 27.5,-6.2032 34.6,-17.6016 4.8,-7.6016 7.6,-18.6016 7.6,-30 0,-1.6016 0,-2.8008 -0.2,-3.6992 v 0 0"
         style="fill:#231f20;fill-opacity:1;fill-rule:nonzero;stroke:none"
         transform="matrix(0.13333333,0,0,-0.13333333,0,157.42667)" />
      <path
         id="path22"
         d="m 2456.9,78 c -0.7,0.1992 -2.1,0.1992 -4.1,0.1992 -18.1,0 -29.1,-6.1992 -29.1,-33.8984 V 2.19922 h -16 V 90.8984 h 16 V 75.3008 c 2.5,8.6992 13.5,16.5 27.7,17.5976 0.9,0.2032 2.8,0.2032 5.9,0.2032 L 2456.9,78"
         style="fill:#231f20;fill-opacity:1;fill-rule:nonzero;stroke:none"
         transform="matrix(0.13333333,0,0,-0.13333333,0,157.42667)" />
      <path
         id="path23"
         d="m 2476.4,32.6992 c 0,-12.3984 8.7,-20.0976 22.7,-20.0976 14.7,0 21.8,5 21.8,14.3984 -0.7,8.1992 -8,9.8008 -21.5,13 l -7.1,1.6016 c -17.6,4.7968 -27.7,8.5 -28.6,25.5976 0,17.6992 16.2,25.9024 32.8,25.9024 20.6,0 35.5,-8.7032 37.1,-29.1016 l -14.9,-2.3008 c -0.2,12.1016 -8.2,18.8008 -22.4,18.8008 -8.9,0 -17.8,-4.3984 -17.8,-12.1992 0.9,-7.8008 8,-9.8008 21.3,-12.8008 l 2.1,-0.5 c 7.6,-1.6016 13.5,-3.1992 17.9,-4.8008 9.1,-3 16,-9.5976 16,-22.1992 0,-9.8984 -3.5,-17 -10.5,-21.5 -6.9,-4.30078 -15.6,-6.398437 -26.1,-6.398437 -20.8,0 -37.6,9.796877 -37.6,31.199237 l 14.6,1.3984 h 0.2 v 0"
         style="fill:#231f20;fill-opacity:1;fill-rule:nonzero;stroke:none"
         transform="matrix(0.13333333,0,0,-0.13333333,0,157.42667)" />
      <path
         id="path24"
         d="m 2553.9,90.8984 h 16 V 2.19922 h -16 v 88.69918 0 z m 0,35.4996 h 16 v -18.796 h -16 v 18.796 0 0"
         style="fill:#231f20;fill-opacity:1;fill-rule:nonzero;stroke:none"
         transform="matrix(0.13333333,0,0,-0.13333333,0,157.42667)" />
      <path
         id="path25"
         d="m 2598.2,77.6016 h -12.8 v 13.2968 h 12.8 V 115.602 H 2614 V 90.8984 h 18.1 V 77.6016 H 2614 v -55 c 0,-5.7032 2.3,-6.9024 9.2,-6.9024 2.1,0 4.8,0.4024 8.2,0.9024 l 0.4,-14.40238 c -3.9,-0.5 -7.1,-0.89844 -9.8,-0.89844 -16.5,0 -23.8,6.39844 -23.8,20.80082 v 55.5"
         style="fill:#231f20;fill-opacity:1;fill-rule:nonzero;stroke:none"
         transform="matrix(0.13333333,0,0,-0.13333333,0,157.42667)" />
      <path
         id="path26"
         d="m 2686.3,126.5 h 17.9 L 2687.9,104 h -13.1 z m -28.7,-71.6992 h 50.8 c -0.2,5 -2,11.6992 -4.8,15.8008 -4.4,6.5976 -11,9.5976 -20.8,9.5976 -9.8,0 -17.4,-3.6992 -20.9,-9.5976 -2.8,-5 -4.1,-10.6016 -4.3,-15.8008 z m 67.1,-13 h -67.3 c 0.5,-19.6992 8.7,-28.9024 25.2,-28.9024 15.1,0 23.2,6.4024 25.4,19.9024 l 15.4,-1.1992 C 2719.3,11 2705.5,0.199219 2682.8,0.199219 c -13.8,0 -24.5,4.300781 -31.9,12.902381 -7.3,8 -10.8,19.2968 -10.8,33.6992 0,13.3008 3.9,24.6992 11.2,33 7.8,8.6992 18.6,13.3008 31.4,13.3008 14.2,0 27.5,-6.2032 34.6,-17.6016 4.8,-7.6016 7.6,-18.6016 7.6,-30 0,-1.6016 0,-2.8008 -0.2,-3.6992 v 0 0"
         style="fill:#231f20;fill-opacity:1;fill-rule:nonzero;stroke:none"
         transform="matrix(0.13333333,0,0,-0.13333333,0,157.42667)" />
    </g>
  </g>
</svg>
