<svg xmlns="http://www.w3.org/2000/svg" xmlns:xlink="http://www.w3.org/1999/xlink" xmlns:inkscape="http://www.inkscape.org/namespaces/inkscape" version="1.1" width="595.276" height="793.701" viewBox="0 0 595.276 793.701">
<defs>
<clipPath id="clip_0">
<path transform="matrix(1,0,0,-1,0,793.701)" d="M56.693 124.554H290.551V94.62H56.693"/>
</clipPath>
<clipPath id="clip_1">
<path transform="matrix(1,0,0,-1,0,793.701)" d="M437.272 758.891H538.58206V722.041H437.272Z"/>
</clipPath>
<clipPath id="clip_2">
<path transform="matrix(1,0,0,-1,0,793.701)" d="M437.272 758.891H538.58206V722.041H437.272Z"/>
</clipPath>
<clipPath id="clip_3">
<path transform="matrix(1,0,0,-1,0,793.701)" d="M56.693 82.205H166.28V61.285005H56.693Z"/>
</clipPath>
<clipPath id="clip_4">
<path transform="matrix(1,0,0,-1,0,793.701)" d="M56.693 82.205H166.28V61.285005H56.693Z"/>
</clipPath>
</defs>
<path transform="matrix(1,0,0,-1,307.729,652.536)" d="M0 0H227.849V-.51H0" fill="#005a5b" fill-rule="evenodd"/>
<path transform="matrix(1,0,0,-1,307.729,652.536)" stroke-width="0" stroke-linecap="round" stroke-linejoin="round" fill="none" stroke="#005a5b" d="M0 0H227.849V-.51H0"/>
<path transform="matrix(1,0,0,-1,535.578,652.536)" d="M0 0 .51-.057C1.647-.139 2.847-1.363 2.948-2.494L3.005-3.005H2.495V-2.551C2.16-1.437 1.61-.815 .454-.567L0-.51" fill="#005a5b" fill-rule="evenodd"/>
<path transform="matrix(1,0,0,-1,535.578,652.536)" stroke-width="0" stroke-linecap="round" stroke-linejoin="round" fill="none" stroke="#005a5b" d="M0 0 .51-.057C1.647-.139 2.847-1.363 2.948-2.494L3.005-3.005H2.495V-2.551C2.16-1.437 1.61-.815 .454-.567L0-.51"/>
<path transform="matrix(1,0,0,-1,538.583,655.54)" d="M0 0V-43.824H-.51V0" fill="#005a5b" fill-rule="evenodd"/>
<path transform="matrix(1,0,0,-1,538.583,655.54)" stroke-width="0" stroke-linecap="round" stroke-linejoin="round" fill="none" stroke="#005a5b" d="M0 0V-43.824H-.51V0"/>
<path transform="matrix(1,0,0,-1,538.583,699.364)" d="M0 0-.057-.51C-.186-1.726-1.279-2.818-2.495-2.948L-3.005-3.005V-2.494L-2.551-2.438C-1.395-2.19-.844-1.567-.51-.454V0" fill="#005a5b" fill-rule="evenodd"/>
<path transform="matrix(1,0,0,-1,538.583,699.364)" stroke-width="0" stroke-linecap="round" stroke-linejoin="round" fill="none" stroke="#005a5b" d="M0 0-.057-.51C-.186-1.726-1.279-2.818-2.495-2.948L-3.005-3.005V-2.494L-2.551-2.438C-1.395-2.19-.844-1.567-.51-.454V0"/>
<path transform="matrix(1,0,0,-1,535.578,702.369)" d="M0 0H-227.849V.51H0" fill="#005a5b" fill-rule="evenodd"/>
<path transform="matrix(1,0,0,-1,535.578,702.369)" stroke-width="0" stroke-linecap="round" stroke-linejoin="round" fill="none" stroke="#005a5b" d="M0 0H-227.849V.51H0"/>
<path transform="matrix(1,0,0,-1,307.729,702.369)" d="M0 0-.51 .057C-1.726 .186-2.818 1.279-2.948 2.495L-3.005 3.005H-2.494V2.551C-2.261 1.597-1.482 .65-.454 .567L0 .51" fill="#005a5b" fill-rule="evenodd"/>
<path transform="matrix(1,0,0,-1,307.729,702.369)" stroke-width="0" stroke-linecap="round" stroke-linejoin="round" fill="none" stroke="#005a5b" d="M0 0-.51 .057C-1.726 .186-2.818 1.279-2.948 2.495L-3.005 3.005H-2.494V2.551C-2.261 1.597-1.482 .65-.454 .567L0 .51"/>
<path transform="matrix(1,0,0,-1,304.724,699.364)" d="M0 0V43.824H.51V0" fill="#005a5b" fill-rule="evenodd"/>
<path transform="matrix(1,0,0,-1,304.724,699.364)" stroke-width="0" stroke-linecap="round" stroke-linejoin="round" fill="none" stroke="#005a5b" d="M0 0V43.824H.51V0"/>
<path transform="matrix(1,0,0,-1,304.724,655.54)" d="M0 0 .057 .51C.158 1.642 1.358 2.866 2.495 2.948L3.005 3.005V2.494L2.551 2.438C1.395 2.19 .844 1.567 .51 .454V0" fill="#005a5b" fill-rule="evenodd"/>
<path transform="matrix(1,0,0,-1,304.724,655.54)" stroke-width="0" stroke-linecap="round" stroke-linejoin="round" fill="none" stroke="#005a5b" d="M0 0 .057 .51C.158 1.642 1.358 2.866 2.495 2.948L3.005 3.005V2.494L2.551 2.438C1.395 2.19 .844 1.567 .51 .454V0"/>
<path transform="matrix(1,0,0,-1,56.692995,92.63696)" d="M0 0 .057 .51 .17 1.02 .397 1.474 .68 1.927 1.077 2.268 1.474 2.551 1.984 2.778 2.494 2.948H479.395C480.532 2.614 481.267 2.154 481.72 1.02L481.833 .51 481.89 0V-10.998L481.833-11.509C481.768-12.452 480.802-13.522 479.905-13.776L479.395-13.947H2.494L1.984-13.776 1.474-13.55 1.077-13.266 .68-12.869 .397-12.472 .17-12.019 .057-11.509 0-10.998" fill="#005a5b" fill-rule="evenodd"/>
<path transform="matrix(1,0,0,-1,59.697999,89.689029)" d="M0 0H475.88V-.964H0" fill="#005a5b" fill-rule="evenodd"/>
<path transform="matrix(1,0,0,-1,59.697999,89.689029)" stroke-width="0" stroke-linecap="round" stroke-linejoin="round" fill="none" stroke="#005a5b" d="M0 0H475.88V-.964H0"/>
<path transform="matrix(1,0,0,-1,535.578,89.689029)" d="M0 0H.51C1.784-.344 2.734-1.075 2.948-2.438L3.005-2.948H1.984V-2.608C1.809-1.826 1.182-1.077 .34-1.02L0-.964" fill="#005a5b" fill-rule="evenodd"/>
<path transform="matrix(1,0,0,-1,535.578,89.689029)" stroke-width="0" stroke-linecap="round" stroke-linejoin="round" fill="none" stroke="#005a5b" d="M0 0H.51C1.784-.344 2.734-1.075 2.948-2.438L3.005-2.948H1.984V-2.608C1.809-1.826 1.182-1.077 .34-1.02L0-.964"/>
<path transform="matrix(1,0,0,-1,538.583,92.63696)" d="M0 0V-10.998H-1.02V0" fill="#005a5b" fill-rule="evenodd"/>
<path transform="matrix(1,0,0,-1,538.583,92.63696)" stroke-width="0" stroke-linecap="round" stroke-linejoin="round" fill="none" stroke="#005a5b" d="M0 0V-10.998H-1.02V0"/>
<path transform="matrix(1,0,0,-1,538.583,103.63501)" d="M0 0-.057-.51C-.223-1.765-1.29-2.672-2.495-2.948H-3.005V-1.984L-2.665-1.928C-1.823-1.871-1.196-1.122-1.021-.34V0" fill="#005a5b" fill-rule="evenodd"/>
<path transform="matrix(1,0,0,-1,538.583,103.63501)" stroke-width="0" stroke-linecap="round" stroke-linejoin="round" fill="none" stroke="#005a5b" d="M0 0-.057-.51C-.223-1.765-1.29-2.672-2.495-2.948H-3.005V-1.984L-2.665-1.928C-1.823-1.871-1.196-1.122-1.021-.34V0"/>
<path transform="matrix(1,0,0,-1,535.578,106.58301)" d="M0 0H-475.88V.964H0" fill="#005a5b" fill-rule="evenodd"/>
<path transform="matrix(1,0,0,-1,535.578,106.58301)" stroke-width="0" stroke-linecap="round" stroke-linejoin="round" fill="none" stroke="#005a5b" d="M0 0H-475.88V.964H0"/>
<path transform="matrix(1,0,0,-1,59.697999,106.58301)" d="M0 0H-.51C-1.715 .276-2.781 1.183-2.948 2.438L-3.005 2.948H-1.984V2.608C-1.809 1.826-1.182 1.077-.34 1.021L0 .964" fill="#005a5b" fill-rule="evenodd"/>
<path transform="matrix(1,0,0,-1,59.697999,106.58301)" stroke-width="0" stroke-linecap="round" stroke-linejoin="round" fill="none" stroke="#005a5b" d="M0 0H-.51C-1.715 .276-2.781 1.183-2.948 2.438L-3.005 2.948H-1.984V2.608C-1.809 1.826-1.182 1.077-.34 1.021L0 .964"/>
<path transform="matrix(1,0,0,-1,56.692995,103.63501)" d="M0 0V10.998H1.02V0" fill="#005a5b" fill-rule="evenodd"/>
<path transform="matrix(1,0,0,-1,56.692995,103.63501)" stroke-width="0" stroke-linecap="round" stroke-linejoin="round" fill="none" stroke="#005a5b" d="M0 0V10.998H1.02V0"/>
<path transform="matrix(1,0,0,-1,56.692995,92.63696)" d="M0 0 .057 .51C.271 1.873 1.22 2.604 2.494 2.948H3.005V1.984L2.665 1.927C1.823 1.871 1.196 1.122 1.021 .34V0" fill="#005a5b" fill-rule="evenodd"/>
<path transform="matrix(1,0,0,-1,56.692995,92.63696)" stroke-width="0" stroke-linecap="round" stroke-linejoin="round" fill="none" stroke="#005a5b" d="M0 0 .057 .51C.271 1.873 1.22 2.604 2.494 2.948H3.005V1.984L2.665 1.927C1.823 1.871 1.196 1.122 1.021 .34V0"/>
<path transform="matrix(1,0,0,-1,0,793.701)" d="M537.562 688.082H57.713014V690.066H537.562Z" fill="#005a5b" fill-rule="evenodd"/>
<path transform="matrix(1,0,0,-1,0,793.701)" stroke-width="0" stroke-linecap="round" stroke-linejoin="round" fill="none" stroke="#005a5b" d="M537.562 688.082H57.713014V690.066H537.562Z"/>
<text fill="#ffffff" xml:space="preserve" transform="matrix(1 0 -0 1 0 793.701)" font-size="12.9515" font-family="WmbmnxAdvOT3b30f6db.B"><tspan y="-691.0864" x="60.2646 70.87188 79.83432 89.6386 101.94253 110.7884 119.80264 128.07865 136.40645 144.68245 155.0566 163.44916 173.25344 181.69782 186.7489 197.35619 462.04603 471.2157 478.89595 485.6307 497.5979 505.95164 511.74095 517.5303 524.2651 529.9119">ORALPRESENTATIONOpenAccess</tspan></text>
<text xml:space="preserve" transform="matrix(.9746775 0 -0 1.0259805 0 793.701)" font-size="23.304734" font-family="SftmgwAdvOT46dcae81"><tspan y="-636.67446" x="58.165803 71.49611 76.83289 82.169689 95.0339 100.37068 110.787899 121.95087 135.11804 140.45482 159.86768 172.96494 184.1279 194.54512 209.85634 222.4642 237.07628 249.68415 255.02094 262.52507 270.02919 289.02253 302.11979 313.77217 325.4245 346.30555 357.46849 369.12086 376.62498 385.83033 398.4382 415.47395 426.86997 438.03294 450.89714 463.76136 475.4137">ClinicalimpactofultradeepversusSanger</tspan><tspan y="-611.4121" x="58.165803 67.37117 79.02354 92.1208 104.72865 116.38102 129.24524 139.66245 144.99924 157.86347 178.55806 191.65532 203.3077 210.81182 222.46419 232.8814 240.38553 245.7223 258.33018 279.07139 291.67927 306.24473 325.65757 330.99433 343.85853 356.4664 363.97053 369.30729 376.81138 395.595 415.00785 427.6157 435.1198 446.28279 453.78688 459.12364 471.7315 484.5957 501.67808 514.28598">sequencingdetectionofminoritymutationson</tspan><tspan y="-586.14987" x="58.165803 73.19736 78.53414 91.39835 98.436389 118.12889 131.22615 138.73027 151.33815 171.98613 179.49025 191.14263 200.34799 205.68479 214.89015 222.39429 233.55725 246.42147 256.83869 276.39137 289.25559 300.90794 313.77217 326.38 333.88414 344.79075 357.88798 377.37077 382.70753 395.57173 403.07585 414.7282 422.2323 435.32957 442.83369 454.48603 461.99015 473.1531 480.6572 485.994 498.60185">HIV-1drugresistancegenotypeinterpretation</tspan><tspan y="-560.8875" x="58.165803 69.32877 76.11045 83.61457 95.26694 110.57815 121.74112 127.0779 134.58202 147.1899 152.52667 165.13454 177.99877 183.33554 193.75276 204.91573 218.12952 224.91121 236.07418 241.41095 246.74774 259.35563 266.8597">aftervirologicalfailure</tspan></text>
<text xml:space="preserve" transform="matrix(.9746678 0 -0 1.0259907 0 793.701)" font-size="10.681383" font-family="BdjsksAdvOT07517017"><tspan y="-537.648" x="58.166387 63.058458 68.73027 71.50743 73.72916 78.50373 84.17555 92.891559 101.11623 106.78804 112.459857 117.319889 125.99317 131.10955">SofianeMohamed</tspan></text>
<text xml:space="preserve" transform="matrix(1.0338413 0 -0 .96726658 0 793.701)" font-size="7.552417" font-family="BdjsksAdvOT07517017"><tspan y="-575.33" x="129.08664 132.70424 133.95795 137.57556">1,4*</tspan></text>
<text xml:space="preserve" transform="matrix(.9746678 0 -0 1.0259907 0 793.701)" font-size="10.681383" font-family="BdjsksAdvOT07517017"><tspan y="-537.648" x="149.02225 154.37364 160.932 166.48633 168.70806 170.9298 173.15152 177.9261 183.48043 192.1537 200.90175 206.24245 211.35883 217.03064 221.80522 224.9135 229.68808 235.45603 241.23467">,GuillaumePenaranda</tspan></text>
<text xml:space="preserve" transform="matrix(1.0338413 0 -0 .96726658 0 793.701)" font-size="7.552417" font-family="BdjsksAdvOT07517017"><tspan y="-575.33" x="231.96114">1</tspan></text>
<text xml:space="preserve" transform="matrix(.9746678 0 -0 1.0259907 0 793.701)" font-size="10.681383" font-family="BdjsksAdvOT07517017"><tspan y="-537.648" x="249.88278 255.17008 262.05958 264.28129 272.9546 275.1763 278.4982 281.6065 287.39579 293.95417 299.62599 305.2978 309.51698 314.29154 316.51325 321.62965">,DimitriGonzalez</tspan></text>
<text xml:space="preserve" transform="matrix(1.0338413 0 -0 .96726658 0 793.701)" font-size="7.552417" font-family="BdjsksAdvOT07517017"><tspan y="-575.33" x="307.25248">2</tspan></text>
<text xml:space="preserve" transform="matrix(.9746678 0 -0 1.0259907 0 793.701)" font-size="10.681383" font-family="BdjsksAdvOT07517017"><tspan y="-537.648" x="329.74519 335.09654 341.09947 343.32118 348.09574 350.31748 353.42576 362.14179 368.1447 372.91929 381.5926 387.14689">,ClaireCamus</tspan></text>
<text xml:space="preserve" transform="matrix(1.0338413 0 -0 .96726658 0 793.701)" font-size="7.552417" font-family="BdjsksAdvOT07517017"><tspan y="-575.33" x="368.72496">1</tspan></text>
<text xml:space="preserve" transform="matrix(.9746678 0 -0 1.0259907 0 793.701)" font-size="10.681383" font-family="BdjsksAdvOT07517017"><tspan y="-537.648" x="394.94975 400.3011 406.97697 411.75154 416.4193 421.5357 427.29298 435.9556 441.17878 446.8506 449.07234 452.1806">,Hac&#x00e8;neKhiri</tspan></text>
<text xml:space="preserve" transform="matrix(1.0338413 0 -0 .96726658 0 793.701)" font-size="7.552417" font-family="BdjsksAdvOT07517017"><tspan y="-575.33" x="428.44255">1</tspan></text>
<text xml:space="preserve" transform="matrix(.9746678 0 -0 1.0259907 0 793.701)" font-size="10.681383" font-family="BdjsksAdvOT07517017"><tspan y="-537.648" x="458.29286 463.6442 468.98493 474.65675 480.32856 485.10313 494.3532 499.6939 505.36573 510.92 513.1417 521.81509">,RonanBoulm&#x00e9;</tspan></text>
<text xml:space="preserve" transform="matrix(1.0338413 0 -0 .96726658 0 793.701)" font-size="7.552417" font-family="BdjsksAdvOT07517017"><tspan y="-575.33" x="496.8245">2</tspan></text>
<text xml:space="preserve" transform="matrix(.9746678 0 -0 1.0259907 0 793.701)" font-size="10.681383" font-family="BdjsksAdvOT07517017"><tspan y="-537.648" x="530.8264">,</tspan><tspan y="-524.0506" x="58.164537 64.16747 69.83929 74.61387 76.835597 82.50741 94.81236 99.70443 104.479007 109.146778 113.92135 119.699977">ChalomSayada</tspan></text>
<text xml:space="preserve" transform="matrix(1.0338413 0 -0 .96726658 0 793.701)" font-size="7.552417" font-family="BdjsksAdvOT07517017"><tspan y="-560.91159" x="117.40632">2</tspan></text>
<text xml:space="preserve" transform="matrix(.9746678 0 -0 1.0259907 0 793.701)" font-size="10.681383" font-family="BdjsksAdvOT07517017"><tspan y="-524.05496" x="128.37317 133.72457 139.06525 143.83983 147.0656 150.17388 152.39562 157.06337 165.13849 170.47919 176.151 178.37273 180.59447 182.8162 188.59484 193.71121 196.81949">,PatrickPhilibert</tspan></text>
<text xml:space="preserve" transform="matrix(1.0338413 0 -0 .96726658 0 793.701)" font-size="7.552417" font-family="BdjsksAdvOT07517017"><tspan y="-560.91159" x="188.63979">3</tspan></text>
<text xml:space="preserve" transform="matrix(.9746678 0 -0 1.0259907 0 793.701)" font-size="10.681383" font-family="BdjsksAdvOT07517017"><tspan y="-524.05496" x="203.93134 209.28272 216.17221 220.9468 226.6186 228.84033 233.95671 239.8208 246.9346 249.15633 251.37807 256.15266">,DanielOlive</tspan></text>
<text xml:space="preserve" transform="matrix(1.0338413 0 -0 .96726658 0 793.701)" font-size="7.552417" font-family="BdjsksAdvOT07517017"><tspan y="-560.91159" x="246.32843">4</tspan></text>
<text xml:space="preserve" transform="matrix(.9746678 0 -0 1.0259907 0 793.701)" font-size="10.681383" font-family="BdjsksAdvOT07517017"><tspan y="-524.05496" x="265.12245 270.4738 275.8145 281.48634 283.70805 285.92976 288.15147 293.93009 299.7087 308.4568 315.13264 319.9072 322.12895 324.9061 330.5779">,PhilippeHalfon</tspan></text>
<text xml:space="preserve" transform="matrix(1.0338413 0 -0 .96726658 0 793.701)" font-size="7.552417" font-family="BdjsksAdvOT07517017"><tspan y="-560.91159" x="317.0684">1</tspan></text>
<text xml:space="preserve" transform="matrix(1 0 -0 1 0 793.701)" font-size="10.959" font-family="ClyvldAdvOT0d9ab1db.I"><tspan y="-516.7558" x="56.6929 61.372396 64.45187 69.93137">From</tspan></text>
<text xml:space="preserve" transform="matrix(1 0 -0 1 0 793.701)" font-size="10.959" font-family="BdjsksAdvOT07517017"><tspan y="-516.7558" x="82.26025 84.53972 90.35895 93.668567 98.91792 102.106998 107.92622 112.8249 116.134517 118.41399 124.233219 130.05245 134.95111 140.82514 145.84436 150.63344 159.53215 165.46097 171.2802 175.26927 177.54874 183.24742 195.8174 202.66678 204.94625 214.02031 218.91898 224.7382 234.31638 239.3356 248.23432 253.48368 256.67274 262.60157 264.88105 270.70027 280.2894 282.56889 288.38813 291.23747 296.48683 301.2759 304.58555 306.86503 312.68428 318.38294 325.98847 333.057 335.3365 339.32557 344.57493 349.4736 353.46269 358.71205 366.35047 371.59983 376.84919 382.09855">InternationalSymposiumHIVandEmergingInfectiousDiseases2014</tspan><tspan y="-503.76939" x="56.6929 65.13133 70.03001 73.21908 77.20815 82.45751 84.736988 87.01646 89.29593 94.54529 100.00287 105.022098 108.21117 113.10984 118.92907 123.718158 128.96752 134.46894 139.71829 144.96765 148.15673 153.40608 162.25 170.68843 175.5871 184.08032 189.32968 194.57904 199.8284">Marseille,France.21-23May2013</tspan></text>
<text xml:space="preserve" transform="matrix(1 0 -0 1 0 793.701)" font-size="10.2614" font-family="WmbmnxAdvOT3b30f6db.B"><tspan y="-466.9227" x="56.6929 63.311506 66.082088">Aim</tspan></text>
<text xml:space="preserve" transform="matrix(1 0 -0 1 0 793.701)" font-size="9.7634" font-family="MvtcstAdvOTa9103878"><tspan y="-454.9605" x="56.6929 63.97835 67.807559 73.257488 81.48022 85.309429 89.78302 93.70986 96.416278 100.34312 103.65486 108.187038 113.74436 118.276538 126.21613 134.51699 139.96692 143.27867 147.81084 151.12259 153.82901 159.07392 164.63124 171.94597 176.47814 180.30735 188.24694 192.07614 197.32105 202.77098 206.08274 208.78916 214.2879 218.82007 221.52649 229.46608 234.79885 239.33101 242.64276 247.17493 251.70709 255.01885 259.55104 268.34004 273.78996 277.7168 280.42323 285.92198">Drugresistancemutationsareroutinelydetectedusing</tspan><tspan y="-443.00035" x="56.6929 60.952676 64.59735 69.462459 75.303897 80.98912 85.854228 90.016368 99.43121 104.91141 109.72769 115.61795 120.79548 125.66058 133.54257 137.80234 142.66744 148.35266 154.13553 158.95182 164.85184 169.66812 172.727 178.56845 183.72646 190.13419 197.4499 203.1742 206.23308 211.09818 220.62042 226.30565 231.88349 236.74858 244.73796 250.5794 256.1963 263.5706 269.2363 274.1014 277.7461 282.6112 287.4275">standardSangersequencing,whichdoesnotdetect</tspan><tspan y="-431.04017" x="56.6929 64.82581 67.46193 72.851329 78.0064 85.094638 89.56627 93.93051 97.73824 100.276729 104.70931 110.09871 113.37921 120.526027 127.331119 129.8696 133.16963 141.83953 149.60143 152.44258 156.18196 160.5462 165.81845 171.10045 175.57209 180.96149 185.43312 193.19503 198.27199 202.71434 205.32117 210.47624 220.6204 225.5021 230.48145 237.28653 242.90048 249.40291 254.6849 262.51515 265.12196 273.25486 278.4392 282.9206 287.28483">minorvariantswithafrequencybelow20%.Theimpact</tspan><tspan y="-419.13859" x="56.6929 62.206296 69.23302 74.853809 79.65447 83.23471 88.03538 92.836048 96.41628 99.39119 105.21701 114.05972 122.61929 125.5942 131.42003 136.97248 144.79979 149.70786 154.50852 158.60622 161.58113 166.38179 172.20761 175.83667 183.7128 188.8259 193.62656 199.45238 204.25304 208.35074 213.1514 216.73165 221.5323 230.8827 236.37657 244.87757 250.60576 253.58068 257.16093 261.2586 266.05928 270.08863 275.69966 280.5003 285.30097">ofdetectingminorvariantsgeneratedbyultra-deep</tspan><tspan y="-407.1784" x="56.6929 60.67832 65.26907 70.67995 76.18845 80.779209 86.39511 90.98586 93.750858 99.36676 107.75548 111.1258 118.46983 125.813869 131.01972 137.87558 143.20836 152.3391 160.04438 163.5221 173.95136 179.36223 183.25002 188.75853 193.66172 197.44211 201.3299 205.92064 209.90607 212.67107 216.6565 220.02683 224.61757 230.23348 234.82422 242.9298 246.32942 253.67345 259.89469 266.75056 269.5253 275.1412 278.51155 283.1023 286.99009">sequencing(UDS)onHIVdrug-resistance(DR)inter-</tspan><tspan y="-395.21824" x="56.6929 61.877267 65.53854 69.90279 73.0466 77.41084 80.55466 83.09314 88.170108 93.5595 100.628208 105.9102 110.274448 117.294338 122.68373 127.7607 134.18502 138.54926 142.9135 149.31829 154.39525 158.75949 163.12374 171.76435 175.52326 178.66707 183.94907 189.13344 191.67192 196.03617 201.22054">pretationshasnotyetbeenstudied.</tspan></text>
<text xml:space="preserve" transform="matrix(1 0 -0 1 0 793.701)" font-size="10.2614" font-family="WmbmnxAdvOT3b30f6db.B"><tspan y="-371.2818" x="56.6929 65.34326 70.75102 74.486179 80.468578 86.3381 92.42311">Methods</tspan></text>
<text xml:space="preserve" transform="matrix(1 0 -0 1 0 793.701)" font-size="9.7634" font-family="MvtcstAdvOTa9103878"><tspan y="-359.3196" x="56.6929 61.906557 64.63055 67.64744 70.937709 78.36765 86.022159 89.41982 96.28349 99.964298 107.96052 113.291339 117.772739 121.09229 123.7577 128.29769 133.79448 137.11403 143.91912 150.89995 156.3577 164.46132 168.99153 173.94158 179.27239 183.81237 187.60057 190.28844 194.80207 200.34084 204.85446 209.36809 217.5918 222.24211 224.91045 228.76992 233.9865 236.67436 241.94953 246.77558 249.46344 253.97707 258.4907 264.049 267.03956 271.55317 274.24104 276.9582 282.38957 286.20024">FiftyHIV-1patientswhoexperiencedvirologicalfailure</tspan><tspan y="-347.35945" x="56.6929 63.889505 68.645259 72.698047 80.636669 83.566669 89.34757 94.103328 97.033329 102.70683 108.28271 113.03846 121.709339 124.639339 133.54453 137.07985 142.75336 145.68335 152.99712 157.0499 161.80565 165.34098 169.39377 174.86225 179.01267 184.58855 189.3443 194.10005 197.63538 200.56537 205.3797 213.31832 217.45897 220.9943 226.6678 232.24369 236.95063 242.62413 249.5376 255.2111 263.09117 271.0005 274.64323 281.7422 285.6876">wereincludedinthisretrospectivestudy.TheHIV-1</tspan><tspan y="-335.39927" x="56.6929 63.81042 70.92794 78.74842 83.932788 87.59406 92.74914 95.89295 100.96992 105.33416 110.411128 115.820049 122.62514 126.98938 133.61873 138.8031 143.16735 146.82862 149.77716 154.85413 158.5154 166.64832 171.09067 179.0869 184.3689 188.1278 190.66629 196.15334 203.6321 206.77591 212.0579 219.28282 226.49797 234.25012 237.36466 242.64665 248.03606 250.57454 255.72962 262.193 265.33683 271.33155 276.4085 280.77275 286.1719">UDSprotocolwasperformedusingtheGSJunior(Roche</tspan><tspan y="-323.49769" x="56.6929 62.04129 67.38968 75.950229 81.903949 84.90912 88.21696 96.26981 101.715839 106.54677 109.55194 114.38287 120.23896 125.06989 129.90082 137.38739 143.64379 147.77175 152.60268 158.45877 161.76662 167.31027 171.43824 177.05025 182.88681 189.9145 196.88362 200.49413 206.2721 213.24121 218.9899 221.99507 229.42307 236.95847 244.54268 253.2204 258.8324 262.97013 268.5138 272.08525 277.6289 282.45985 288.0035">454LifeSciencesBranford,CT).ThisUDSprotocol</tspan><tspan y="-311.5375" x="56.6929 61.334424 64.150188 66.96595 72.3202 79.40257 84.04409 92.55192 95.95349 101.51277 109.21999 114.68164 119.32316 122.744258 127.38577 132.0273 135.4484 138.26416 143.61841 152.35079 157.00208 162.66875 171.11798 176.57962 182.1389 186.78043 192.4471 195.8682 198.68396 201.80239 204.61815 209.25968 213.9012 217.3223 220.13806 225.49231 234.22469 239.57894 245.7533 254.16349 256.97926 262.64595 268.00019 274.97517 279.62644 285.29313">allowedthedetectionandquantificationofminorand</tspan><tspan y="-299.57734" x="56.6929 64.979099 69.457569 72.01265 77.22338 83.90838 91.50137 94.90587 101.76661 105.39566 113.330379 118.599689 122.39472 127.62498 130.85373 135.37126 139.84975 143.76195 151.13039 155.60887 161.10274 169.32059 173.05704 177.57457 182.1702 186.64868 190.44371 194.29734 201.66577 204.96288 208.77744 213.25592 218.74979 222.66199 227.14048 230.95503 233.6468 238.98445 242.21321 246.73075 250.58437 257.95283 262.54844 267.06596 270.80244 273.4942 278.01173 283.51536 286.80268">majorHIV-1proteaseandreversetranscriptasevariants</tspan><tspan y="-287.61717" x="56.6929 60.67832 65.36671 68.22934 72.917728 76.38568 81.03501 89.64828 93.10647 101.553768 106.544818 111.2332 116.94674 122.347858 125.81581 130.46515 135.9639 140.65229 147.79128 155.02791 160.52666 166.6405 172.13925 179.07321 184.63054 190.44171 195.99904 204.44634 209.15425 214.81899 223.43227 230.91298 236.4703 243.91197 248.60036 253.2497 258.74845 265.6824 271.28855 275.97694">relatedtogenotypesA,B,C,E,FandG.DeepChek</tspan></text>
<text xml:space="preserve" transform="matrix(1.0607245 0 -0 .94275197 0 793.701)" font-size="6.903301" font-family="WbqkjkAdvTT5843c571"><tspan y="-309.63789" x="265.04536">&#x00ae;</tspan></text>
<text xml:space="preserve" transform="matrix(1 0 -0 1 0 793.701)" font-size="9.7634" font-family="MvtcstAdvOTa9103878"><tspan y="-287.6031" x="286.9795">-</tspan><tspan y="-275.6429" x="56.69017 64.56826 68.17974 78.32294 81.836788 89.10954 95.25951 101.106807 106.71979 112.108219 122.48573 127.21024 132.95992 141.58002 148.49153 154.1338 158.8583 162.87985 167.60436 173.14899 177.87349 183.7208 189.29666 194.33556 199.06201 205.92667 215.33956 220.95449 228.43422 233.77577 241.05048 247.6808 251.76288 254.66359 263.15873 268.70533 271.60603 274.5067 277.71009 280.61079 285.33726">HIV(ABL,SAandTherapyEdgeTM,USA)simplified</tspan><tspan y="-263.68275" x="56.69017 61.969244 65.72522 71.10192 78.694919 82.4509 86.90984 90.76346 93.396648 97.25026 100.48878 104.85009 110.402538 114.86148 122.12252 125.36104 132.57326 138.66269 144.7326 147.3658 152.8499 156.08843 160.54737 164.30335 169.58242 173.3384 177.69969 180.98703 185.4655 188.70403 191.33722 196.54795 204.82437 208.67798 213.84966 216.7855 220.02404 226.92383 231.38277 235.13875 242.39978 249.29958 253.75852 260.4435 265.7226 269.62504 274.10353 282.214 285.44276">drugresistance(DR)interpretationsoftwarewasusedto</tspan><tspan y="-251.72258" x="56.69017 61.38246 66.78748 75.24844 80.76086 85.45315 89.442478 97.210239 102.517627 107.209918 112.87854 117.86373 122.55602 129.64035 133.66873 138.37079 143.88321 149.49326 154.18555 159.85419 164.54648 167.41301 173.13047 181.18137 185.87366 191.5423 200.15949 207.60506 215.05063 223.44326 228.0965 234.67313 238.14499 245.27812 253.72933 259.23197 262.0985 265.21888 268.38807 273.08036 277.06968 281.76197 287.43058">compareSangersequencingandUDSattwodifferent</tspan><tspan y="-239.76242" x="56.69017 59.921857 65.20386 68.93348 73.29772 77.212848 82.49484 87.64015 90.24698 95.43134 102.09975">thresholds(</tspan></text>
<text xml:space="preserve" transform="matrix(1 0 -0 1 0 793.701)" font-size="9.7634" font-family="BlqqmwAdvOTa9103878+22"><tspan y="-239.76242" x="105.33143">&#x2265;</tspan></text>
<text xml:space="preserve" transform="matrix(1 0 -0 1 0 793.701)" font-size="9.7634" font-family="MvtcstAdvOTa9103878"><tspan y="-239.76242" x="110.769649 115.651348 125.39522 129.75946 135.25626">1%and</tspan></text>
<text xml:space="preserve" transform="matrix(1 0 -0 1 0 793.701)" font-size="9.7634" font-family="BlqqmwAdvOTa9103878+22"><tspan y="-239.76242" x="143.31107">&#x2265;</tspan></text>
<text xml:space="preserve" transform="matrix(1 0 -0 1 0 793.701)" font-size="9.7634" font-family="MvtcstAdvOTa9103878"><tspan y="-239.76242" x="148.74929 153.63098 158.61032 165.4154 168.6471 173.69477 180.81229 185.2644 189.62865 194.9009 201.58882 206.87082 211.34246">20%).DeepChek</tspan></text>
<text xml:space="preserve" transform="matrix(1.0607245 0 -0 .94275197 0 793.701)" font-size="6.903301" font-family="WbqkjkAdvTT5843c571"><tspan y="-258.9436" x="203.90157">&#x00ae;</tspan></text>
<text xml:space="preserve" transform="matrix(1 0 -0 1 0 793.701)" font-size="9.7634" font-family="MvtcstAdvOTa9103878"><tspan y="-239.7543" x="221.8393 225.47129 233.06722 236.31842 245.93538 251.21738 254.49788 257.03639 259.65296 262.25978 266.52638 270.98823 277.61759 280.84928 286.1313">-HIVutilizesthe</tspan><tspan y="-227.85272" x="56.691377 63.603864 71.02405 77.018779 81.99811 86.909099 94.42691 97.67812 104.38558 109.56995 117.35137 121.715618 127.10501 135.04267 141.03739 145.40163 150.0783 157.20558 161.56983 164.1083 168.78498 173.86194 177.52321 180.06169 183.2055 188.4875 196.62042 200.37934">ANRS,HIVdbandRegaalgorithms.</tspan></text>
<text xml:space="preserve" transform="matrix(1 0 -0 1 0 793.701)" font-size="10.2614" font-family="WmbmnxAdvOT3b30f6db.B"><tspan y="-203.9244" x="56.6929 62.675298 68.01122 72.39284 78.34445 81.11503 84.85018">Results</tspan></text>
<text xml:space="preserve" transform="matrix(1 0 -0 1 0 793.701)" font-size="9.7634" font-family="MvtcstAdvOTa9103878"><tspan y="-191.9622" x="56.6929 63.195329 68.477329 76.190418 79.33423 84.411197 87.642879 92.00712 97.90421 101.04803 103.58651 111.71942 119.452037 123.11331 127.477558 132.66193 138.05132 140.5898 144.25107 148.61531 157.1583 159.99945 165.07642 172.067 175.21082 180.57093 188.22544 195.34296 202.46048 210.78867 215.97304 219.63431 224.78939 227.9332 233.01016 237.3744 242.45137 248.37775 255.18283 259.54707 266.69389 269.53504 274.612 279.894 285.28343">ThetotaltimerequiredfortheUDSprotocolwasfound</tspan><tspan y="-180.00205" x="56.6929 60.278024 69.51615 75.034427 83.59888 88.40442 94.03009 99.65576 103.75835 109.27662 114.492229 117.472019 126.046237 130.85178 134.43689 139.24243 142.22223 150.7281 154.35227 160.07558 164.17816 168.9837 177.48958 181.07469 184.05448 192.6287 197.39519 205.33478 208.28528 213.80356 219.63426 224.75225 229.51874 237.34117 240.91652 246.63983 251.44538 260.9666 266.4068 271.21235 276.9942 282.11219 286.87867">tobeapproximatelythreetimeslongerthanSanger</tspan><tspan y="-168.04189" x="56.6929 60.549448 64.91369 70.24451 75.526508 79.998149 85.49494 89.859188 92.52459 97.91399 106.07619 112.98868 115.595508 118.82719 127.497089 131.97849 137.16286 142.58155 145.18837 149.71858 154.08283 156.74823 161.22963 166.61904 173.24839 176.98777 181.352 185.8334 190.59795 194.96219 200.51758 207.09812 211.46236 216.67601 220.53256 223.67638 227.56221 233.11759 240.31322 247.50885 255.89562 261.08 265.59068 268.82237 273.18659 277.66798 280.89967 285.2639">sequencingwithequivalentreagentcosts.UDSdetected</tspan><tspan y="-156.08173" x="56.6929 61.414484 64.31031 70.82836 76.27244 83.073619 86.58453 92.22388 100.557918 109.00912 114.67775 118.1789 122.90048 126.401638 129.23888 134.67319 140.41992 148.18769 151.36664 156.80095 162.44029 168.18703 177.31189 182.7462 191.08023 196.62194 202.05625 207.5589 213.22754 216.12337 220.84494 224.3461 227.24193 232.67624 242.02567 246.14192 250.8635 256.36616 262.0348 266.75639 272.5031 277.2247 280.1205 285.86726">allofthemutationsfoundbypopulationsequencing</tspan><tspan y="-144.12157" x="56.6929 61.552148 67.387729 77.98785 81.05062 86.72999 91.58923 97.42481 101.11245 104.145938 107.482089 110.51557 115.37482 125.97494 130.85372 136.53308 142.21245 145.24594 148.88477 151.91826 157.49024 163.37464 168.23387 176.1686 180.32488 185.18412 189.43802 192.47151 196.72544 200.36426 205.18445 211.07862 215.93785 225.68856 230.6552 235.51444 239.67072 242.70421 247.56345 253.44785 257.08668 266.2711 269.30458 280.12925 284.9885 288.02198">andidentifiedadditionalresistancevariantsinall</tspan><tspan y="-132.21999" x="56.6929 61.877267 66.24151 69.38532 71.923809 76.28805 81.677448 84.82126 88.58017 94.057437 99.2418 102.903079 105.44156 113.57447 117.93871 121.59999 124.13847 126.676959 134.37052 139.44748 147.12152 152.40352 156.16243 158.70092 164.09032 172.1256 177.0073 187.09288 190.85179 195.21604 200.60544 204.36435 206.90283 210.04665 212.58513 217.05677 219.59525 222.73906 227.1033 232.61962 239.5321 248.21178 252.57602 257.96543 262.32966 264.86814 269.23237 272.99128 275.52976 282.62776 287.7047">patients,primarilybyusing1%sensitivity.Ananalysisof</tspan><tspan y="-466.93867" x="304.7223 312.12785 321.93519 325.8845 330.53675 335.2964 339.94865 344.6009 347.4274 352.07966 361.15473 369.3706 372.77314 378.13813 381.56996 386.2222 392.63188 397.99687 404.68968 409.85939 415.02909 423.76243 428.41468 434.0921 443.1086 448.27833 453.44804 462.18138 466.83363 469.66014 472.48664 478.2129 480.99058 485.69166 490.3439 493.1704 495.99693 504.2128 508.18165 512.8339 515.6604 520.3127 525.0723 529.7246 535.40206">DRrevealedatotalof643and224clinicallyrelevant</tspan><tspan y="-454.9785" x="304.7223 312.96064 318.34809 321.59736 326.06706 329.3163 331.96025 337.14265 342.63749 349.88975 355.10145 362.91999 370.17225 377.3952 385.89717 390.36686 395.8617 404.5394 409.5851 414.0548 419.54966 424.33177 428.80146 436.00489 439.85948 444.32917 449.61897 455.0064 459.4761 464.97096 469.44065 472.08457 477.5794 482.3615 487.9735 491.74024 496.20994 500.07429 505.36408 509.83378 514.30349 517.55276 520.19668 524.77377 529.2434 531.8873 536.357">mutationsbyUDSandSangersequencing,respectively.</tspan><tspan y="-443.0183" x="304.7223 311.37995 316.81718 320.6337 325.15318 333.0898 336.8868 341.40629 345.32044 348.01417 351.9283 355.22737 359.74684 365.24266 369.78166 377.7183 385.99668 391.4339 394.73295 399.2524 402.55146 405.24519 410.4774 416.02204 423.33387 430.2942 432.9879 436.28697 445.13163 450.56886 455.55696 460.59388 470.97138 476.31098 480.1275 484.64698 489.23478 493.75425 496.44798 500.96745 506.5121 510.9925 518.92916 525.88949 530.40896 534.22549">Threeresistancemutationswith&#x003e;20%prevalencewere</tspan><tspan y="-431.05815" x="304.7223 310.0775 314.6712 317.98588 322.52098 327.05607 330.37074 334.90583 343.688 347.61778 352.8656 355.57496 360.11006 362.8194 370.81074 376.05857 384.0499 391.3383 398.62669 403.7769 409.5617 416.64506 421.6976 426.75016 435.3078 438.62248 443.67503 448.72758 455.70353 459.0182 464.74443 470.4023 475.45487 480.50743 485.55998 496.09956 499.4142 504.46678 509.51933 516.49526 523.2369 527.772 533.3322">detectedsolelybyUDS:A98S(23%),E138A(21%)and</tspan><tspan y="-419.15657" x="304.7223 311.42976 316.31147 321.19319 326.0749 332.5578 335.70164 340.58335 345.46507 352.27015 355.41398 360.85218 370.99635 374.75526 377.29374 381.9704 387.3598 389.8983 392.73945 395.27793 399.64216 404.00639 409.39579 415.83964 421.024 423.56248 426.40364 429.24479 433.609 437.2703 441.63453 447.02394 451.38816 459.10124 461.6397 470.27058 473.4144 478.6964 486.31187 493.42939 502.69486 505.23335 510.62275 513.76657 518.1308 521.79208 526.97647 530.6377 535.00198">V179I(25%).AsignificantdifferenceintheDRinterpre-</tspan><tspan y="-407.19639" x="304.7223 307.86613 312.3182 315.46205 318.09815 323.1751 328.6426 335.73085 338.572 343.78565 350.7567 355.63844 363.90806 368.27229 373.76908 376.9129 379.549 383.2103 387.65263 390.79646 394.45774 399.6128 404.14305 406.68153 410.43067 414.7949 420.692 425.9642 429.6255 434.97584 439.6525 446.77003 453.5751 458.0565 465.2033 470.28028 475.35725 479.204 483.56825 487.30763 491.83787 496.2021 504.7646 509.91966 514.2839 517.51559 524.3207 528.68496 533.1664">tationsfor19antiretroviraldrugswasobservedbetween</tspan><tspan y="-395.2362" x="304.7223 308.1102 313.6363 321.73994 329.10154 336.46315 345.25019 349.85853 355.53108 364.4841 369.69776 374.34516 379.9591 384.87986 389.52726 396.9572 400.97975 405.58808 411.0165 416.5426 421.15095 426.8235 431.4123 434.19486 439.8674 448.31275 456.6995 461.30784 464.69575 470.22184 475.54289 480.9713 484.9743 490.8714 497.21763 502.3434 507.4985 512.62429 523.0516 527.6599 533.33248">theUDSandSangersequencingmethods.Y181Cand</tspan><tspan y="-383.27604" x="304.7223 311.6182 316.89338 322.16856 327.38514 337.59083 344.78938 349.54707 353.6018 362.05006 365.5678 371.2433 379.69154 388.2179 393.68833 397.8407 405.03929 408.2739 412.32865 417.08634 422.66416 428.33964 433.09733 438.8802 446.07878 454.60514 460.2806 463.8179 468.5756 472.11289 475.04484 480.51527 486.29814 494.12156 498.87925 503.03163 507.184 512.6544 517.4121 520.34408 525.10177 528.63906 533.3479">T215Ywerethemostfrequentmutationsassociated</tspan><tspan y="-371.31587" x="304.7223 311.52738 314.2416 317.38545 326.14323 328.75004 334.24684 337.47853 341.84275 345.64073 350.91294 354.57423 359.07514 362.30683 366.67106 369.96134 372.56816 377.7232 386.56886 391.7532 394.3893 397.33787 400.17903 404.70924 408.4486 412.81285 418.30964 422.79103 427.15525 431.07038 436.62574 443.20625 448.59565 456.35755 464.5783 468.94255 471.54939 476.70445 483.79267 489.06489 491.6717 495.4306 499.95106 503.69044 508.05467 513.38546 517.7497 523.2465 527.72799 530.33486 534.6991">withinterpretationdifferences.Themajordiscrepancies</tspan><tspan y="-359.35569" x="304.7223 310.03944 314.64387 318.02787 325.11219 329.7166 334.36988 343.49476 348.7631 353.36753 359.03617 363.953 368.60627 376.03233 380.62699 386.29563 395.25456 402.61225 409.96995 418.70429 425.7886 430.38328 434.28474 442.4528 447.87736 451.7788 454.61607 462.95008 467.60334 471.51457 474.2932 477.07188 485.23994 488.32127 493.6384 499.16059 504.79017 513.8077 518.40237 525.3207 528.7242 534.24636">betweenSangerandUDSwereprimarilyfoundatthe</tspan><tspan y="-347.3955" x="304.7223 309.604 319.6896 322.83345 328.11546 331.77674 336.14097 339.89988 345.1819 350.25886 352.79734 361.24269 363.78117 372.47059 375.6144 380.89643 388.51188 391.6557 396.9377 400.599 404.96324 412.60798 416.9722 419.51069 424.18736 429.2643 432.9256 435.46409 438.6079 443.88993 452.02284 455.78175">1%thresholdinthethreealgorithms.</tspan></text>
<text xml:space="preserve" transform="matrix(1 0 -0 1 0 793.701)" font-size="10.2614" font-family="WmbmnxAdvOT3b30f6db.B"><tspan y="-323.4897" x="304.7243 310.80934 316.67884 322.66123 327.34043 330.111 335.9805 340.36213 343.1327 349.0022">Conclusion</tspan></text>
<text xml:space="preserve" transform="matrix(1 0 -0 1 0 793.701)" font-size="9.7634" font-family="MvtcstAdvOTa9103878"><tspan y="-311.5275" x="304.7243 311.84184 318.7836 326.4967 333.3018 337.49028 343.95365 352.08656 357.04637 360.70765 367.70799 371.4669 375.6456 381.035 384.65724 387.1957 390.21263 392.7511 397.0763 404.10594 407.24977 412.3853 416.74955 424.80436 427.94819 433.08375 440.17198 443.93089 446.9185 451.16557 456.55497 461.59288 465.9571 469.47193 477.35099 482.33033 486.53834 491.92774 496.45796 500.82218 507.11958 510.87849 515.1158 520.3002 525.4357 529.6828 535.0722">UDSwasmoresensitivethanthestandardSangersequen-</tspan><tspan y="-299.56733" x="304.7243 309.08854 311.627 316.90904 321.5857 326.4869 336.24055 340.60478 345.68174 353.69749 358.77445 361.31294 366.70234 371.06657 374.103 376.64149 381.71846 389.80256 394.87953 400.513 407.63053 414.74806 422.4514 426.8156 432.20503 440.14265 447.26017 451.6244 455.98863 461.06559 467.6754 472.95744 477.22404">cing.AcombinationofUDSandDeepChek</tspan></text>
<text xml:space="preserve" transform="matrix(1.0607245 0 -0 .94275197 0 793.701)" font-size="6.903301" font-family="WbqkjkAdvTT5843c571"><tspan y="-322.32655" x="454.5162">&#x00ae;</tspan></text>
<text xml:space="preserve" transform="matrix(1 0 -0 1 0 793.701)" font-size="9.7634" font-family="MvtcstAdvOTa9103878"><tspan y="-299.5653" x="490.3936 494.1525 499.22947 502.07063 505.21446 511.88285 516.2471 519.9083 527.0161 529.85726 534.9342">softwarefor</tspan><tspan y="-287.60514" x="304.72303 308.26423 313.9436 321.9369 324.8239 330.6107 334.1519 338.91349 342.97215 348.55387 352.61253 357.3741 360.9153 365.6769 369.2181 372.15397 377.6283 386.64677 392.0918 398.61085 406.09645 415.72999 419.75935 424.52095 428.70845 434.3849 437.3178 440.85609 448.2216 452.37495 457.1336 461.9997 466.75837 475.59815 483.5885 488.34718 493.81858 499.60243 503.75578 506.6887 512.2675 517.0262 521.0819 525.8406 531.312 534.24496">theinterpretationofDRresultssavedaconsiderable</tspan><tspan y="-275.64497" x="304.72303 309.08726 317.22016 322.13114 327.41316 332.67564 338.57273 343.6497 349.23439 352.3782 354.78977 362.92268 369.9816 374.34584 379.61808 387.5557 394.36079 399.43775 404.56355 407.10203 414.99085 420.27287 424.51017 427.04866 434.93748 439.3017 441.84019 444.17366 449.56306 452.10154 456.30955 458.84803 463.21226 468.44544 474.96739 480.15174 483.69587 488.77284 493.1078 495.64628 500.83064 507.8505 511.6094 516.8914 519.303 522.4468 526.6744 531.75137 534.28988">amountoftimeandwouldhelpcliniciansprovidesuitable</tspan><tspan y="-263.68479" x="304.72303 307.86686 311.52815 315.89237 320.2566 323.40043 331.53334 335.89756 341.28697 344.4308 348.1897 353.2569 363.0691 367.43333 372.71534 375.85917 379.41304 384.49 387.33116 393.12086 398.1978 403.8899 408.7716 418.4569 422.82115 425.35963 427.8981 432.97508 439.78016 444.14439 452.248 459.50218 464.57914 468.94337 472.0872 475.23103 479.59526 486.20509 490.5693 495.85133 500.21556 503.87684 508.24107 512.6053 515.7491 520.11337 523.7746 526.3131 530.5797 534.944">treatments.Acut-offof1%allowedabettercharacteriza-</tspan><tspan y="-251.72463" x="304.72303 307.86686 310.40534 315.38468 323.60548 328.68244 334.31593 337.45976 342.74177 349.84953 354.32118 356.85966 360.52095 364.75825 370.08906 375.2734 380.35038 385.53474 390.81675 393.21855 397.58277 400.7266 403.26509 408.24443 416.4652 421.54219 428.64994 431.18843 436.37278 440.737 446.1264 449.1726 451.7111 454.55226 458.80909 461.34757 466.73698 474.17668 478.5409 483.72526 488.80223 491.3407 494.48454 497.023 502.01213 507.40153 511.76576 517.038 520.6993 525.06356 528.82247 531.36099 535.01248">tionoftheviralpopulationbyidentifyingadditionalresis-</tspan><tspan y="-239.76447" x="304.72303 307.86686 312.0358 317.4252 321.61369 328.6433 336.63954 341.92155 344.9189 349.166 352.3098 354.66279 359.73976 364.9827 371.32893 375.69316 380.9068 388.72727 391.26576 399.21315 404.3975 407.88304 412.96 417.23637 419.77485 424.94947 432.26225 435.40608 440.54164 447.5127 454.63023 463.21226 465.75074 470.92536 474.06919 478.23814 481.8994 486.90803 490.5693 494.72853 497.87236 502.0413 505.18513 507.5381 512.61508 517.85806">tancemutationsandimprovingtheDRinterpretation.</tspan></text>
<text xml:space="preserve" transform="matrix(1 0 -0 1 0 793.701)" font-size="7.4718" font-family="LkhhjxAdvOTce3d9a73"><tspan y="-215.8866" x="304.7243 309.4689 313.66807 316.2309 320.43006 324.6292 327.27424">Authors</tspan></text>
<text xml:space="preserve" transform="matrix(1 0 -0 1 0 793.701)" font-size="7.4718" font-family="PgtdqpAdvOTce3d9a73+20"><tspan y="-215.8866" x="330.46467">&#x2019;</tspan></text>
<text xml:space="preserve" transform="matrix(1 0 -0 1 0 793.701)" font-size="7.4718" font-family="LkhhjxAdvOTce3d9a73"><tspan y="-215.8866" x="334.65635 338.9302 342.7408 345.30366 349.03956 350.9075 352.77546">details</tspan></text>
<text xml:space="preserve" transform="matrix(1.06073 0 -0 .94274708 0 793.701)" font-size="5.2829658" font-family="BdjsksAdvOT07517017"><tspan y="-222.98377" x="287.2779">1</tspan></text>
<text xml:space="preserve" transform="matrix(1 0 -0 1 0 793.701)" font-size="7.4718" font-family="BdjsksAdvOT07517017"><tspan y="-206.9291" x="307.3889 311.74494 313.29908 317.3413 321.30885 324.64875 328.69099 330.24513 336.75306 340.09297 343.43287 347.4751 351.44264 353.6169 357.04649 359.30296 363.27049 365.44477 368.70994 372.46827 378.22157 381.56147 383.73576 386.45549 390.03446 391.5886 393.14274 394.69688 398.27586 402.06407 405.48616 407.66044 411.00035 414.96788 418.23304 421.812">AlphabioLaboratory,Marseille,France.</tspan></text>
<text xml:space="preserve" transform="matrix(1.06073 0 -0 .94274708 0 793.701)" font-size="5.2829658" font-family="BdjsksAdvOT07517017"><tspan y="-222.98377" x="401.22706">2</tspan></text>
<text xml:space="preserve" transform="matrix(1 0 -0 1 0 793.701)" font-size="7.4718" font-family="BdjsksAdvOT07517017"><tspan y="-206.9291" x="428.2582 432.61427 436.6565 439.9964 443.3363 447.30384 450.569 454.14799 460.74559 464.48149 466.0356 470.00315 471.55729 475.5248 479.56706 481.1212 484.38636 487.72627 491.81333 495.15324 498.49314 502.53538 506.5029 508.6772 512.10678 514.3632 518.33078 520.50509 522.0592 525.6382">AdvancedBiologicalLaboratories</tspan><tspan y="-197.9181" x="304.72694 306.6696 311.02565 314.76155 318.10145 320.0441 323.8323 327.1722 331.05757 334.24803 337.827 343.8941 347.93635 351.90388 355.7892 357.9635 362.00575 365.78648 369.12638 373.01173 376.20219 379.78117 385.84828 389.8905 393.85804 397.74339 400.02976 404.072">(ABL),Luxembourg,Luxembourg.</tspan></text>
<text xml:space="preserve" transform="matrix(1.06073 0 -0 .94274708 0 793.701)" font-size="5.2829658" font-family="BdjsksAdvOT07517017"><tspan y="-213.48227" x="384.44477">3</tspan></text>
<text xml:space="preserve" transform="matrix(1 0 -0 1 0 793.701)" font-size="7.4718" font-family="BdjsksAdvOT07517017"><tspan y="-197.9149" x="410.4566 413.8787 417.76405 419.93833 423.90586 427.9481 431.52708 434.86698 441.41227 446.08213 450.04966 452.76939 456.8116 458.36576 460.62223 463.96214 465.51628 469.30448 475.05778 478.39768 480.57197 483.2917 486.87068 488.4248 489.97895 491.53309 495.11207 498.90028 502.32237 504.49665 507.83656 511.80409 515.0693 518.64828">EuropeanHospital,Marseille,France.</tspan></text>
<text xml:space="preserve" transform="matrix(1.06073 0 -0 .94274708 0 793.701)" font-size="5.2829658" font-family="BdjsksAdvOT07517017"><tspan y="-203.9808" x="287.2779">4</tspan></text>
<text xml:space="preserve" transform="matrix(1 0 -0 1 0 793.701)" font-size="7.4718" font-family="BdjsksAdvOT07517017"><tspan y="-188.9575" x="307.3889 311.1248 314.4647 318.43223 319.98637 324.0585 328.25767 331.59757 333.1517 339.2188 342.7978 345.05427 347.31074 350.8897 356.14985 357.70399 361.6715 364.39125 366.6477 368.20185 370.4583 374.34367 376.60014 380.1791 383.98976 387.41184 391.29719 397.3643 401.33183 406.0465 407.60066 413.66777 419.73487 423.6202 427.58775 431.55528 433.1094 437.07695 441.11918 446.92475 450.26466 453.60456 457.6468 461.61433 463.7886 467.21818 469.47465 473.44218 475.61647 481.39216 484.73207 488.6996 495.22248 496.7766 501.5212 504.9433 508.3654 512.10128">PaoliCalmettesInstitute,TumorImmunologyLaboratoryandINSERM</tspan><tspan y="-179.99881" x="304.72148 308.92063 312.4996 316.46714 318.7236 322.30259 327.00236 330.96989 335.3932 339.59236 342.93226 346.89979 350.16496 353.81864 358.4661 362.202 365.78099 368.5007 372.07969 375.4196 377.59388 380.85905 384.82658 388.62974 394.38304 397.72294 399.89723 402.61695 406.19593 407.75007 409.3042 410.85835 414.43733 418.22554 421.6476 423.8219 427.1618 431.12934 434.3945 437.97349">CenterofCancerResearch,Marseille,France.</tspan></text>
<text xml:space="preserve" transform="matrix(1 0 -0 1 0 793.701)" font-size="7.4718" font-family="SftmgwAdvOT46dcae81"><tspan y="-162.08144" x="304.72148 308.689 312.73124 316.9304 318.64143 320.35246 323.3038 327.42823 331.16413 335.36329 339.36073 343.17134 349.50743 355.4998 359.07878 365.10105 368.91166 372.72227 376.53288">Published:23May2014</tspan></text>
<text xml:space="preserve" transform="matrix(1 0 -0 1 0 793.701)" font-size="7.2728" font-family="SftmgwAdvOT46dcae81"><tspan y="-130.6772" x="310.2235 314.31083 318.2454 319.91087 321.3436 325.05274 328.76188 330.1946 333.90376 337.61289 341.32203 345.14753 347.56938 351.2785 354.98765 358.69679 362.4059 364.6023 368.31144 372.02058 375.7297 379.43885 381.63523 385.34437 389.0535 391.35169 394.90809 398.61723 400.8136 405.81">doi:10.1186/1471-2334-14-S2-O1</tspan></text>
<text xml:space="preserve" transform="matrix(1 0 -0 1 0 793.701)" font-size="7.2728" font-family="LkhhjxAdvOTce3d9a73"><tspan y="-122.23348" x="310.2235 314.46357 316.28178 318.77635 324.90733 327.4019 331.4892 333.3074 338.79838 342.43479 345.00938 347.50395 349.32215 352.5731 354.3913 360.56593 364.20234 367.2278">Citethisarticleas:</tspan></text>
<text xml:space="preserve" transform="matrix(1 0 -0 1 0 793.701)" font-size="7.2728" font-family="BdjsksAdvOT07517017"><tspan y="-122.23348" x="371.33686 377.00239 380.86424 384.72608 387.97703 393.88255 397.3662">Mohamed</tspan></text>
<text xml:space="preserve" transform="matrix(1 0 -0 1 0 793.701)" font-size="7.2728" font-family="ClyvldAdvOT0d9ab1db.I"><tspan y="-122.23348" x="403.76628 406.79176 411.35908 414.99549">etal</tspan></text>
<text xml:space="preserve" transform="matrix(1 0 -0 1 0 793.701)" font-size="7.2728" font-family="BdjsksAdvOT07517017"><tspan y="-122.23348" x="416.46458 417.67185">.:</tspan></text>
<text xml:space="preserve" transform="matrix(1 0 -0 1 0 793.701)" font-size="7.2728" font-family="SftmgwAdvOT46dcae81"><tspan y="-122.23348" x="421.28645 425.44648 427.11195 428.7774 432.792 434.45747 437.78114 441.2648 445.37394 447.0394 453.09767 457.18498 460.66865 463.9196 468.73417 472.66874 477.23606 481.17063 482.8361 485.17793 487.51976 493.44709 497.5344 501.1708 504.80723 511.36003 514.8437 518.4801 520.82199 523.6947 527.6293">Clinicalimpactofultradeepversus</tspan><tspan y="-113.73158" x="310.2235 313.7799 317.26359 321.27818 325.29277 328.92918 333.751 336.62376 340.26017 344.34748 348.28205 351.91847 355.93305 359.26399 360.92945 364.94404 371.39503 375.48234 379.11875 381.46058 385.097 388.34794 390.68977 392.35523 396.2898 402.79896 406.73353 411.30085 417.35908 419.02455 423.03913 426.9737 429.31553 430.981 433.3228 439.19197 445.25019 449.18476 451.60658 455.09025 457.43208 459.09754 463.0321 467.0467 472.35585 476.2904 482.785 487.47596 489.14143 493.156 495.3524 501.49064 505.57795 507.91978 511.85435">SangersequencingdetectionofminoritymutationsonHIV-1drug</tspan><tspan y="-105.287868" x="310.2235 312.56535 316.20176 319.0745 320.73997 323.6127 325.95454 329.4382 333.4528 336.70375 342.82017 346.83476 350.47117 354.48576 358.42033 360.76216 364.2458 368.3331 374.39137 376.05683 380.0714 382.41325 386.04966 388.39149 392.4788 394.82063 398.5443 400.88615 404.3698 406.71165 408.3771 412.31169 418.7845 422.26817 424.38456 426.72639 430.3628 435.1701 438.65379 440.31925 442.66108 446.59565 448.2611 452.19569 456.21028 457.87574 461.12669 464.7049 468.78495 470.90135 474.385 476.05049 477.71595 481.6505 483.99235 487.62876">resistancegenotypeinterpretationaftervirologicalfailure.</tspan></text>
<text xml:space="preserve" transform="matrix(1 0 -0 1 0 793.701)" font-size="7.2728" font-family="ClyvldAdvOT0d9ab1db.I"><tspan y="-105.287868" x="491.52717 495.01084 500.46543 506.7782 508.21095 511.92008 513.7383 516.7638 519.71658 521.83297 523.2657 526.9021 530.5385">BMCInfectious</tspan><tspan y="-96.84415" x="310.2235 314.769 316.20176 318.69633 321.7218 325.35823 327.85279 330.87828">Diseases</tspan></text>
<text xml:space="preserve" transform="matrix(1 0 -0 1 0 793.701)" font-size="7.2728" font-family="BdjsksAdvOT07517017"><tspan y="-96.84415" x="335.84559 339.32926 342.81294 346.2966">2014</tspan></text>
<text xml:space="preserve" transform="matrix(1 0 -0 1 0 793.701)" font-size="7.2728" font-family="SftmgwAdvOT46dcae81"><tspan y="-96.84415" x="352.2312 355.94035">14</tspan></text>
<text xml:space="preserve" transform="matrix(1 0 -0 1 0 793.701)" font-size="7.2728" font-family="BdjsksAdvOT07517017"><tspan y="-96.84415" x="359.65675 361.54768 364.8786 368.66047 372.59504 376.6096 380.58058 384.06425 385.95518 387.16246 392.00614 395.4898">(Suppl2):O1.</tspan></text>
<g clip-path="url(#clip_0)">
<path transform="matrix(1,0,0,-1,56.692995,682.186)" stroke-width=".113" stroke-linecap="round" stroke-linejoin="round" fill="none" stroke="#000000" d="M0 0H233.858"/>
</g>
<text xml:space="preserve" transform="matrix(1.06073 0 -0 .94274708 0 793.701)" font-size="5.2829658" font-family="BdjsksAdvOT07517017"><tspan y="-113.41621" x="53.44706">1</tspan></text>
<text xml:space="preserve" transform="matrix(1 0 -0 1 0 793.701)" font-size="7.4718" font-family="BdjsksAdvOT07517017"><tspan y="-103.6347" x="59.3575 63.71356 65.26769 69.30994 73.277469 76.61736 80.65961 82.213748 88.72169 92.061588 95.40148 99.443729 103.411258 105.58555 109.01511 111.27159 115.23912 117.413417 120.67859 124.436908 130.19019 133.53008 135.70438 138.42412 142.00312 143.55725 145.11139 146.66553 150.24452 154.03273 157.45482 159.62912 162.96901 166.93654 170.20172">AlphabioLaboratory,Marseille,France</tspan><tspan y="-94.6237" x="56.690069 60.112154 63.99749 65.55162 69.61629 71.170429 72.72456 75.4443 80.21878 84.18631 88.60961 91.94951 95.83485 98.09133 102.05886 106.02639 110.77846 112.332599 116.300128 118.24279 122.21032 124.38461 130.45172 133.79161 136.0481 137.60224 141.56977 148.08518 149.63932 154.83222 158.1721 161.512 164.85189 166.40602 167.96016 171.30005 175.34229 177.00102 183.06813 186.40802 191.17504 193.43152 197.39905 203.47362 207.05261 211.02014 217.53554 221.50307 225.98615 228.24263 232.21016 238.28473 241.62462 243.79892 246.0554 247.60955 250.87473 252.42887">Fulllistofauthorinformationisavailableattheendofthearticle</tspan></text>
<text xml:space="preserve" transform="matrix(1 0 -0 1 0 793.701)" font-size="7.9702" font-family="SftmgwAdvOT46dcae81"><tspan y="-753.392" x="56.6929 63.085004 67.39688 71.79643 75.61416 82.253337 86.238437">Mohamed</tspan></text>
<text xml:space="preserve" transform="matrix(1 0 -0 1 0 793.701)" font-size="7.9702" font-family="CmqbcdAdvOT65f8a23b.I"><tspan y="-753.392" x="93.31596 96.87865 101.98754 106.13205">etal</tspan></text>
<text xml:space="preserve" transform="matrix(1 0 -0 1 0 793.701)" font-size="7.9702" font-family="SftmgwAdvOT46dcae81"><tspan y="-753.392" x="107.88549">.</tspan></text>
<text xml:space="preserve" transform="matrix(1 0 -0 1 0 793.701)" font-size="7.9702" font-family="CmqbcdAdvOT65f8a23b.I"><tspan y="-753.392" x="112.07782 116.142627 122.27968 129.3094 131.13459 135.36676 137.60639 141.16907 144.48467 146.97138 148.70888 152.85338 156.99788 162.5292 167.66999 169.40749 172.30864 175.87133 180.01583 182.91698 186.47966">BMCInfectiousDiseases</tspan></text>
<text xml:space="preserve" transform="matrix(1 0 -0 1 0 793.701)" font-size="7.9702" font-family="SftmgwAdvOT46dcae81"><tspan y="-753.392" x="192.01892 196.08373 200.14853 204.21334 208.27814">2014,</tspan></text>
<text xml:space="preserve" transform="matrix(1 0 -0 1 0 793.701)" font-size="7.9702" font-family="WmbmnxAdvOT3b30f6db.B"><tspan y="-753.392" x="212.48639 216.88594">14</tspan></text>
<text xml:space="preserve" transform="matrix(1 0 -0 1 0 793.701)" font-size="7.9702" font-family="SftmgwAdvOT46dcae81"><tspan y="-753.392" x="221.21376 223.45339 227.35082 231.66269 236.14194 240.62119 245.0845 249.1493 251.38893 252.95906 258.4346">(Suppl2):O1</tspan><tspan y="-743.4691" x="56.692888 61.092439 63.658845 66.22525 70.704509 72.274639 74.92871 77.58279 83.39307 89.123638 94.933917 96.50404 100.9833 102.80847 107.120349 113.75952 117.74462 122.22388 125.78656 129.77167 134.08354 136.64995 139.21636 143.03409 144.85927 146.4294 149.99208 154.30396 160.94313 163.59722 167.66202 171.72682 175.79163 179.77674 182.18373 186.24854 190.31334 194.37815 198.44295 201.09703 205.16184 209.22664 211.88072 215.77816 219.84296 222.40937 227.88489">http://www.biomedcentral.com/1471-2334/14/S2/O1</tspan></text>
<path transform="matrix(1,0,0,-1,0,793.701)" d="M446.854 724.429H447.928V731.92306H446.854Z" fill="#231f20"/>
<path transform="matrix(1,0,0,-1,449.742,63.79596)" d="M0 0H.977V-.87H.998C1.299-.247 2.029 .129 2.792 .129 4.209 .129 4.842-.752 4.842-2.223V-5.476H3.833V-2.641C3.833-1.363 3.554-.741 2.673-.687 1.525-.687 1.009-1.61 1.009-2.942V-5.476H0V0" fill="#231f20"/>
<path transform="matrix(1,0,0,-1,456.957,64.612)" d="M0 0H-1.289V.816H0V1.321C0 2.652 .344 3.522 1.836 3.522 2.094 3.522 2.308 3.489 2.512 3.457L2.469 2.641C2.351 2.684 2.158 2.706 1.986 2.706 1.117 2.706 1.009 2.147 1.009 1.407V.816H2.459V0H1.009V-4.66H0V0" fill="#231f20"/>
<path transform="matrix(1,0,0,-1,464.677,69.047)" d="M0 0C-.387-.139-.827-.354-1.729-.354-3.672-.354-4.563 .827-4.563 2.609-4.563 4.23-3.543 5.379-1.997 5.379-.172 5.379 .419 4.048 .419 2.287H-3.489C-3.489 1.203-2.641 .461-1.686 .461-1.02 .461-.247 .805 0 1.009V0ZM-.655 3.039C-.655 3.876-1.149 4.563-2.018 4.563-3.006 4.563-3.414 3.747-3.489 3.039H-.655" fill="#231f20"/>
<path transform="matrix(1,0,0,-1,469.927,64.71997)" d="M0 0C-.387 .161-.773 .236-1.095 .236-2.223 .236-2.856-.773-2.856-1.814-2.856-2.792-2.33-3.865-1.031-3.865-.687-3.865-.258-3.758 .054-3.554L.129-4.456C-.29-4.649-.773-4.681-1.138-4.681-2.792-4.681-3.93-3.382-3.93-1.814-3.93-.15-2.813 1.052-1.138 1.052-.73 1.052-.204 .956 .086 .838L0 0" fill="#231f20"/>
<path transform="matrix(1,0,0,-1,474.125,64.612)" d="M0 0H-1.449V-2.996C-1.449-3.629-1.063-3.973-.601-3.973-.29-3.973-.064-3.876 .086-3.779V-4.638C-.14-4.703-.451-4.789-.773-4.789-1.815-4.789-2.459-4.295-2.459-3.2V0H-3.694V.816H-2.459V2.083L-1.449 2.405V.816H0V0" fill="#231f20"/>
<path transform="matrix(1,0,0,-1,476.595,62.572999)" d="M0 0H-1.138V1.138H0ZM-1.074-1.224H-.064V-6.7H-1.074V-1.224" fill="#231f20"/>
<path transform="matrix(1,0,0,-1,480.803,63.66797)" d="M0 0C1.664 0 2.781-1.202 2.781-2.867 2.781-4.434 1.643-5.733 0-5.733-1.654-5.733-2.792-4.434-2.792-2.867-2.792-1.202-1.675 0 0 0ZM0-4.918C1.181-4.918 1.707-3.844 1.707-2.867 1.707-1.825 1.074-.816 0-.816-1.084-.816-1.718-1.825-1.718-2.867-1.718-3.844-1.192-4.918 0-4.918" fill="#231f20"/>
<path transform="matrix(1,0,0,-1,489.78,69.27197)" d="M0 0H-.977V.87H-.999C-1.299 .247-2.029-.129-2.792-.129-4.209-.129-4.842 .751-4.842 2.223V5.476H-3.833V2.641C-3.833 1.364-3.554 .741-2.673 .687-1.525 .687-1.009 1.611-1.009 2.942V5.476H0V0" fill="#231f20"/>
<path transform="matrix(1,0,0,-1,491.089,68.198)" d="M0 0C.397-.258 .966-.387 1.256-.387 1.718-.387 2.287-.193 2.287 .398 2.287 1.396-.086 1.31-.086 2.845-.086 3.983 .762 4.531 1.847 4.531 2.319 4.531 2.705 4.434 3.103 4.316L3.017 3.436C2.792 3.575 2.19 3.715 1.954 3.715 1.439 3.715 .988 3.5 .988 3.049 .988 1.933 3.361 2.255 3.361 .504 3.361-.666 2.427-1.203 1.449-1.203 .934-1.203 .408-1.149-.054-.902L0 0" fill="#231f20"/>
<path transform="matrix(1,0,0,-1,498.691,61.777956)" d="M0 0H2.212C4.434 0 6.206-1.375 6.206-3.683 6.206-6.195 4.681-7.494 2.212-7.494H0V0ZM1.074-6.55H2.201C4.048-6.55 5.068-5.658 5.068-3.726 5.068-1.976 3.876-.945 2.33-.945H1.074V-6.55" fill="#231f20"/>
<path transform="matrix(1,0,0,-1,507.613,62.572999)" d="M0 0H-1.138V1.138H0ZM-1.074-1.224H-.064V-6.7H-1.074V-1.224" fill="#231f20"/>
<path transform="matrix(1,0,0,-1,508.988,68.198)" d="M0 0C.397-.258 .966-.387 1.256-.387 1.718-.387 2.287-.193 2.287 .398 2.287 1.396-.086 1.31-.086 2.845-.086 3.983 .762 4.531 1.846 4.531 2.319 4.531 2.705 4.434 3.103 4.316L3.017 3.436C2.791 3.575 2.19 3.715 1.954 3.715 1.439 3.715 .988 3.5 .988 3.049 .988 1.933 3.36 2.255 3.36 .504 3.36-.666 2.426-1.203 1.45-1.203 .934-1.203 .408-1.149-.054-.902L0 0" fill="#231f20"/>
<path transform="matrix(1,0,0,-1,517.77,69.047)" d="M0 0C-.387-.139-.827-.354-1.729-.354-3.672-.354-4.563 .827-4.563 2.609-4.563 4.23-3.543 5.379-1.997 5.379-.172 5.379 .419 4.048 .419 2.287H-3.49C-3.49 1.203-2.641 .461-1.686 .461-1.02 .461-.247 .805 0 1.009V0ZM-.655 3.039C-.655 3.876-1.149 4.563-2.019 4.563-3.007 4.563-3.414 3.747-3.49 3.039H-.655" fill="#231f20"/>
<path transform="matrix(1,0,0,-1,519.8,64.18298)" d="M0 0C.505 .301 1.106 .515 1.804 .515 3.371 .515 4.005-.257 4.005-1.75V-4.015C4.005-4.638 4.026-4.928 4.048-5.089H3.103V-4.381H3.081C2.845-4.713 2.308-5.218 1.385-5.218 .204-5.218-.623-4.702-.623-3.511-.623-2.136 .88-1.707 1.922-1.707 2.319-1.707 2.598-1.707 2.996-1.728 2.996-.784 2.652-.3 1.643-.3 1.074-.3 .462-.515 .054-.859L0 0ZM2.996-2.48C2.781-2.48 2.566-2.459 2.351-2.459 1.804-2.459 .451-2.544 .451-3.511 .451-4.091 1.009-4.402 1.471-4.402 2.469-4.402 2.996-3.779 2.996-2.963V-2.48" fill="#231f20"/>
<path transform="matrix(1,0,0,-1,525.104,68.198)" d="M0 0C.397-.258 .967-.387 1.257-.387 1.718-.387 2.287-.193 2.287 .398 2.287 1.396-.086 1.31-.086 2.845-.086 3.983 .762 4.531 1.847 4.531 2.319 4.531 2.706 4.434 3.103 4.316L3.017 3.436C2.792 3.575 2.19 3.715 1.954 3.715 1.439 3.715 .988 3.5 .988 3.049 .988 1.933 3.361 2.255 3.361 .504 3.361-.666 2.427-1.203 1.45-1.203 .934-1.203 .408-1.149-.053-.902L0 0" fill="#231f20"/>
<path transform="matrix(1,0,0,-1,533.886,69.047)" d="M0 0C-.387-.139-.827-.354-1.729-.354-3.672-.354-4.563 .827-4.563 2.609-4.563 4.23-3.543 5.379-1.997 5.379-.172 5.379 .419 4.048 .419 2.287H-3.49C-3.49 1.203-2.641 .461-1.686 .461-1.02 .461-.247 .805 0 1.009V0ZM-.655 3.039C-.655 3.876-1.149 4.563-2.019 4.563-3.007 4.563-3.414 3.747-3.49 3.039H-.655" fill="#231f20"/>
<g clip-path="url(#clip_1)">
<path transform="matrix(1,0,0,-1,535.25,68.198)" d="M0 0C.397-.258 .966-.387 1.256-.387 1.718-.387 2.287-.193 2.287 .398 2.287 1.396-.086 1.31-.086 2.845-.086 3.983 .762 4.531 1.847 4.531 2.319 4.531 2.706 4.434 3.103 4.316L3.017 3.436C2.792 3.575 2.19 3.715 1.954 3.715 1.439 3.715 .988 3.5 .988 3.049 .988 1.933 3.361 2.255 3.361 .504 3.361-.666 2.427-1.203 1.45-1.203 .934-1.203 .408-1.149-.053-.902L0 0" fill="#231f20"/>
</g>
<path transform="matrix(1,0,0,-1,446.789,48.97101)" d="M0 0H2.029C3.586 0 4.66-.505 4.66-1.89 4.66-2.92 4.059-3.436 3.114-3.672V-3.693C4.134-3.779 4.853-4.445 4.853-5.497 4.853-7.108 3.522-7.494 1.997-7.494H0V0ZM1.074-3.2H1.664C2.706-3.2 3.586-3.103 3.586-1.997 3.586-1.106 2.824-.88 2.201-.88H1.074V-3.2ZM1.074-6.614H1.879C2.845-6.614 3.715-6.41 3.715-5.401 3.715-4.241 2.695-4.08 1.771-4.08H1.074V-6.614" fill="#231f20"/>
<path transform="matrix(1,0,0,-1,453.42503,48.97101)" d="M0 0H1.772L4.123-6.228 6.431 0H8.203V-7.494H7.129V-1.009H7.108L4.627-7.494H3.575L1.095-1.009H1.074V-7.494H0V0" fill="#231f20"/>
<path transform="matrix(1,0,0,-1,468.724,50.204957)" d="M0 0C-.472 .279-.998 .419-1.546 .419-3.274 .419-4.424-.827-4.424-2.513-4.424-4.273-3.157-5.444-1.6-5.444-1.063-5.444-.343-5.304 .032-5.078L.097-6.12C-.472-6.357-1.17-6.389-1.611-6.389-3.983-6.389-5.561-4.864-5.561-2.48-5.561-.172-3.887 1.364-1.6 1.364-1.02 1.364-.451 1.278 .086 1.041L0 0" fill="#231f20"/>
<g clip-path="url(#clip_2)">
<path transform="matrix(1,0,0,-1,439.852,61.539)" d="M0 0C-3.367 5.529-3.553 12.712 .126 18.57 5.309 26.82 16.056 29.176 24.308 23.991 27.296 22.114 29.435 18.339 29.435 18.339 28.272 20.188 26.685 21.816 24.71 23.055 17.68 27.471 8.403 25.352 3.987 18.322 .819 13.282 1.014 7.083 3.97 2.351L0 0" fill="#008489"/>
<path transform="matrix(1,0,0,-1,0,793.701)" d="M507.581 722.041H508.421V724.42306H507.581Z" fill="#ffffff"/>
</g>
<g clip-path="url(#clip_3)">
<path transform="matrix(1,0,0,-1,62.606004,732.446)" d="M0 0C-3.505 1.716-5.913 5.269-5.913 9.374-5.913 15.158-1.165 19.734 4.732 19.734 6.867 19.734 9.179 18.512 9.179 18.512 7.987 19.074 6.65 19.39 5.239 19.39 .216 19.39-3.855 15.396-3.855 10.469-3.855 6.935-1.761 3.881 1.278 2.436L0 0" fill="#226fb7"/>
</g>
<path transform="matrix(1,0,0,-1,73.07001,711.496)" d="M0 0C3.505-1.717 5.912-5.27 5.912-9.373 5.912-15.157 1.164-19.735-4.732-19.735-6.867-19.735-9.179-18.511-9.179-18.511-7.987-19.075-6.65-19.389-5.239-19.389-.216-19.389 3.855-15.396 3.855-10.469 3.855-6.935 1.761-3.881-1.277-2.438L0 0" fill="#005b5a"/>
<path transform="matrix(1,0,0,-1,86.103,724.639)" d="M0 0H.847C1.439 0 2.08 .214 2.08 .855 2.08 1.565 1.475 1.696 .87 1.696H0V0ZM0 3.404H.81C1.378 3.404 1.995 3.57 1.995 4.199 1.995 4.816 1.463 5.005 .882 5.005H0V3.404ZM-3.047 6.57H2.261C3.724 6.57 5.163 6.109 5.163 4.531 5.163 3.392 4.546 2.787 3.422 2.503V2.478C4.595 2.324 5.32 1.424 5.32 .593 5.32-1.494 3.603-1.709 1.85-1.709H-3.047V6.57" fill="#226fb7"/>
<path transform="matrix(1,0,0,-1,91.85899,720.16799)" d="M0 0H3.047V-6.18H0ZM3.047 .653H0V2.716H3.047Z" fill="#226fb7"/>
<path transform="matrix(1,0,0,-1,99.041,724.711)" d="M0 0C.593 0 .677 .664 .677 1.566 .677 2.301 .593 2.906 0 2.906-.592 2.906-.665 2.301-.665 1.566-.665 .664-.592 0 0 0ZM0 4.684C2.539 4.684 3.918 3.641 3.918 1.566 3.918-.57 2.539-1.779 0-1.779-2.551-1.779-3.905-.57-3.905 1.566-3.905 3.641-2.551 4.684 0 4.684" fill="#226fb7"/>
<path transform="matrix(1,0,0,-1,103.80299,718.069)" d="M0 0H4.788L5.889-4.53H5.913L7.001 0H11.777V-8.279H8.876L8.827-1.778H8.803L7.147-8.279H4.45L2.841-1.778H2.793L2.756-8.279H0V0" fill="#005b5a"/>
<path transform="matrix(1,0,0,-1,120.354999,722.67)" d="M0 0C0 .475-.072 1.221-.761 1.221-1.463 1.221-1.62 .485-1.583 0H0ZM-1.571-1.305C-1.523-2.076-.786-2.254 .109-2.254 .943-2.254 1.694-2.112 2.177-1.862V-3.463C1.367-3.712 .399-3.819-.665-3.819-3.216-3.819-4.57-2.61-4.57-.475-4.57 1.6-3.216 2.644-.665 2.644 1.778 2.644 2.636 1.15 2.636-.937V-1.305H-1.571" fill="#005b5a"/>
<path transform="matrix(1,0,0,-1,126.977008,721.876)" d="M0 0C-.641 0-.75-.64-.75-1.281-.75-1.932-.641-2.621 .025-2.621 .677-2.621 .774-1.932 .774-1.351 .774-.64 .677 0 0 0ZM.907-4.472V-3.344H.883C.46-4.27-.157-4.613-1.149-4.613-3.168-4.613-3.918-3.072-3.918-1.281-3.918 .391-3.132 1.85-1.233 1.85-.423 1.85 .193 1.578 .666 .913H.689V4.424H3.736V-4.472H.907" fill="#005b5a"/>
<path transform="matrix(1,0,0,-1,140.138,725.831)" d="M0 0C-.41-.217-1.194-.422-2.183-.422-4.149-.422-6.03 .844-6.03 3.726-6.03 6.139-4.475 7.972-1.918 7.972-.881 7.972-.277 7.743-.024 7.61L-.217 7.128C-.627 7.332-1.218 7.477-1.906 7.477-4.101 7.477-5.439 6.054-5.439 3.715-5.439 1.508-4.173 .084-2.002 .084-1.303 .084-.627 .229-.169 .458L0 0" fill="#231f20"/>
<path transform="matrix(1,0,0,-1,140.138,725.831)" stroke-width=".215" stroke-linecap="butt" stroke-miterlimit="4" stroke-linejoin="miter" fill="none" stroke="#231f20" d="M0 0C-.41-.217-1.194-.422-2.183-.422-4.149-.422-6.03 .844-6.03 3.726-6.03 6.139-4.475 7.972-1.918 7.972-.881 7.972-.277 7.743-.024 7.61L-.217 7.128C-.627 7.332-1.218 7.477-1.906 7.477-4.101 7.477-5.439 6.054-5.439 3.715-5.439 1.508-4.173 .084-2.002 .084-1.303 .084-.627 .229-.169 .458L0 0Z"/>
<path transform="matrix(1,0,0,-1,145.117,722.708)" d="M0 0C.012 .808-.325 2.038-1.725 2.038-3.003 2.038-3.557 .892-3.654 0H0ZM-3.69-.458C-3.69-2.316-2.677-3.039-1.483-3.039-.639-3.039-.205-2.87 .121-2.713L.265-3.172C.048-3.293-.543-3.546-1.556-3.546-3.22-3.546-4.257-2.328-4.257-.627-4.257 1.303-3.148 2.508-1.652 2.508 .241 2.508 .603 .724 .603-.109 .603-.265 .603-.362 .579-.458H-3.69" fill="#231f20"/>
<path transform="matrix(1,0,0,-1,145.117,722.708)" stroke-width=".215" stroke-linecap="butt" stroke-miterlimit="4" stroke-linejoin="miter" fill="none" stroke="#231f20" d="M0 0C.012 .808-.325 2.038-1.725 2.038-3.003 2.038-3.557 .892-3.654 0H0Z"/>
<path transform="matrix(1,0,0,-1,141.427,723.166)" stroke-width=".215" stroke-linecap="butt" stroke-miterlimit="4" stroke-linejoin="miter" fill="none" stroke="#231f20" d="M0 0C0-1.857 1.013-2.581 2.207-2.581 3.051-2.581 3.485-2.412 3.811-2.255L3.956-2.714C3.739-2.835 3.148-3.087 2.135-3.087 .47-3.087-.567-1.869-.567-.169-.567 1.761 .543 2.967 2.038 2.967 3.932 2.967 4.294 1.182 4.294 .35 4.294 .193 4.294 .096 4.27 0H0Z"/>
<path transform="matrix(1,0,0,-1,147.034,721.719)" d="M0 0C0 .531-.024 .929-.048 1.387H.483L.531 .338H.555C.868 .989 1.592 1.52 2.545 1.52 3.1 1.52 4.559 1.242 4.559-.929V-4.402H3.992V-.977C3.992 .073 3.582 1.025 2.388 1.025 1.568 1.025 .881 .446 .651-.301 .603-.446 .567-.639 .567-.82V-4.402H0V0" fill="#231f20"/>
<path transform="matrix(1,0,0,-1,147.034,721.719)" stroke-width=".215" stroke-linecap="butt" stroke-miterlimit="4" stroke-linejoin="miter" fill="none" stroke="#231f20" d="M0 0C0 .531-.024 .929-.048 1.387H.483L.531 .338H.555C.868 .989 1.592 1.52 2.545 1.52 3.1 1.52 4.559 1.242 4.559-.929V-4.402H3.992V-.977C3.992 .073 3.582 1.025 2.388 1.025 1.568 1.025 .881 .446 .651-.301 .603-.446 .567-.639 .567-.82V-4.402H0V0Z"/>
<path transform="matrix(1,0,0,-1,154.136,719.053)" d="M0 0V-1.278H1.652V-1.737H0V-5.5C0-6.235 .229-6.706 .844-6.706 1.146-6.706 1.363-6.657 1.508-6.609L1.58-7.055C1.387-7.14 1.122-7.2 .772-7.2 .35-7.2 0-7.055-.217-6.778-.482-6.477-.579-5.994-.579-5.403V-1.737H-1.556V-1.278H-.579V-.217L0 0" fill="#231f20"/>
<path transform="matrix(1,0,0,-1,154.136,719.053)" stroke-width=".215" stroke-linecap="butt" stroke-miterlimit="4" stroke-linejoin="miter" fill="none" stroke="#231f20" d="M0 0V-1.278H1.652V-1.737H0V-5.5C0-6.235 .229-6.706 .844-6.706 1.146-6.706 1.363-6.657 1.508-6.609L1.58-7.055C1.387-7.14 1.122-7.2 .772-7.2 .35-7.2 0-7.055-.217-6.778-.482-6.477-.579-5.994-.579-5.403V-1.737H-1.556V-1.278H-.579V-.217L0 0Z"/>
<path transform="matrix(1,0,0,-1,156.909,722.068)" d="M0 0C0 .579-.024 1.182-.048 1.737H.482L.506 .567H.531C.784 1.29 1.387 1.869 2.183 1.869 2.255 1.869 2.34 1.857 2.412 1.845V1.29C2.328 1.314 2.243 1.314 2.135 1.314 1.339 1.314 .772 .627 .615-.302 .591-.47 .567-.663 .567-.856V-4.052H0V0" fill="#231f20"/>
<path transform="matrix(1,0,0,-1,156.909,722.068)" stroke-width=".215" stroke-linecap="butt" stroke-miterlimit="4" stroke-linejoin="miter" fill="none" stroke="#231f20" d="M0 0C0 .579-.024 1.182-.048 1.737H.482L.506 .567H.531C.784 1.29 1.387 1.869 2.183 1.869 2.255 1.869 2.34 1.857 2.412 1.845V1.29C2.328 1.314 2.243 1.314 2.135 1.314 1.339 1.314 .772 .627 .615-.302 .591-.47 .567-.663 .567-.856V-4.052H0V0Z"/>
<path transform="matrix(1,0,0,-1,163.337,723.021)" d="M0 0C-1.266 .036-2.931-.157-2.931-1.544-2.931-2.376-2.376-2.75-1.773-2.75-.808-2.75-.265-2.159-.06-1.592-.024-1.471 0-1.351 0-1.242V0ZM.567-1.725C.567-2.183 .591-2.653 .651-3.1H.133L.048-2.268H.012C-.265-2.714-.904-3.232-1.833-3.232-2.991-3.232-3.533-2.412-3.533-1.64-3.533-.302-2.352 .506 0 .482V.627C0 1.206-.109 2.352-1.483 2.339-1.99 2.339-2.52 2.207-2.931 1.905L-3.112 2.328C-2.593 2.677-1.941 2.822-1.423 2.822 .254 2.822 .567 1.568 .567 .53V-1.725" fill="#231f20"/>
<path transform="matrix(1,0,0,-1,163.337,723.021)" stroke-width=".215" stroke-linecap="butt" stroke-miterlimit="4" stroke-linejoin="miter" fill="none" stroke="#231f20" d="M0 0C-1.266 .036-2.931-.157-2.931-1.544-2.931-2.376-2.376-2.75-1.773-2.75-.808-2.75-.265-2.159-.06-1.592-.024-1.471 0-1.351 0-1.242V0Z"/>
<path transform="matrix(1,0,0,-1,163.904,724.746)" stroke-width=".215" stroke-linecap="butt" stroke-miterlimit="4" stroke-linejoin="miter" fill="none" stroke="#231f20" d="M0 0C0-.458 .024-.929 .084-1.375H-.434L-.519-.543H-.555C-.832-.989-1.471-1.507-2.4-1.507-3.558-1.507-4.1-.687-4.1 .085-4.1 1.423-2.919 2.231-.567 2.207V2.352C-.567 2.931-.676 4.077-2.051 4.064-2.557 4.064-3.088 3.932-3.498 3.63L-3.679 4.052C-3.16 4.402-2.508 4.547-1.99 4.547-.314 4.547 0 3.293 0 2.255V0Z"/>
<path transform="matrix(1,0,0,-1,0,793.701)" d="M165.627 67.58H166.194V76.143009H165.627Z" fill="#231f20"/>
<g clip-path="url(#clip_4)">
<path transform="matrix(1,0,0,-1,0,793.701)" stroke-width=".215" stroke-linecap="butt" stroke-miterlimit="4" stroke-linejoin="miter" fill="none" stroke="#231f20" d="M165.627 76.143H166.194V67.58H165.627Z"/>
</g>
<text xml:space="preserve" transform="matrix(.97465667 0 -0 1.0260024 0 793.701)" font-size="6.7970607" font-family="BdjsksAdvOT07517017"><tspan y="-79.237239" x="183.22615 190.09119 193.40814 196.7251 200.09645 205.67684 210.91057 214.63538 218.24462 221.43924 227.01963 230.33658 236.38596 239.70291 244.06662 247.20687 248.62065 252.14833 253.65727 255.07106 258.13655 261.50788 265.1171 267.734 271.05097 276.63136 280.0299 281.57286 285.18208 290.58576 293.9027 299.89094 303.78569 307.10264 310.71186 312.92094 314.8989 318.10029 321.82508 324.9653 327.01805 330.83799 334.27055 337.47193 341.08119 342.6513 347.4772 348.891 353.75773 356.796 362.83177 367.42658 371.1038 374.46153 380.44975 384.4124 387.48469 390.45503 393.88075 396.3549 401.208 404.34825 406.32618 408.48088 409.9898 412.9601 414.52348 420.10386 423.78108 425.3376 427.8933 429.946 432.02595 433.53489 437.2121 440.8621 443.01676 446.33375 452.3831 455.99235 459.60157 463.3807 466.75205 471.0546 473.10734 476.8117 482.45329 484.506 487.86375 489.8417 495.54444 500.31599 504.04075 508.11219 510.26689 513.8761 519.5177 523.4124 525.3903 528.76168 531.9019 533.9546 535.51107 538.5494">&#x00a9;2014Mohamedetal;licenseeBioMedCentralLtd.ThisisanOpenAccessarticledistributedunderthetermsoftheCreative</tspan><tspan y="-71.50218" x="183.22615 187.12088 190.73012 196.37168 201.95206 205.67685 209.2861 214.1664 218.12908 220.33133 222.38404 224.46393 225.97287 229.65009 233.30011 235.45478 236.86856 240.63414 246.56798 249.60628 251.1628 254.1331 257.50447 261.22926 263.70338 269.37214 271.17335 274.78257 276.99165 279.04435 282.8643 283.99266 286.47358 288.80497 291.88404 293.9775 297.2945 300.33277 302.52824 303.94203 307.12306 310.44004 313.41035 317.1895 322.7699 328.35029 331.95954 335.73869 338.21284 339.46348 343.07273 345.1662 348.94535 351.27677 352.8401 354.25389 357.37376 360.6907 364.29997 366.91685 370.2338 372.78953 375.1209 378.95445 381.92478 384.36494 387.6819 388.90538 392.22236 394.08473 397.57164 402.5131 406.1223 407.63127 410.71714 416.65098 420.32817 423.7471 425.72505 431.36659 432.87553 434.92826 439.79496 443.4042 447.01344 449.10694 452.47825 454.9524 457.13429 459.1122 460.68235 463.65269 465.80058 469.1719 475.1601 478.76936 481.32505 484.64204 488.1289 491.80613 493.36268 495.8368 498.01869 499.99665 501.56678 505.244 508.89399 511.04866 512.46249 516.1668 519.8916 523.32418 526.46438 530.0736">CommonsAttributionLicense(http://creativecommons.org/licenses/by/4.0),whichpermitsunrestricteduse,distribution,and</tspan><tspan y="-63.71275" x="183.22615 185.20409 188.57544 192.3546 194.33254 198.05733 201.83649 205.44574 208.41605 210.62509 212.03888 215.80446 221.5072 223.01615 228.71889 231.85913 235.46837 240.64093 246.22132 249.53827 253.21547 254.77199 258.38127 263.96165 267.21745 270.89463 273.0357 276.64497 279.83958 281.25337 285.0733 288.3903 294.1474 296.30207 299.9113 305.3761 308.98536 311.07884 312.58778 316.26499 317.82154 321.43077 324.62538 328.11228 333.11488 336.7241 338.8176 343.75904 345.268 349.8628 353.54 355.6811 359.2903 363.0695 366.38645 368.47996 369.89375 375.0527 378.02305 379.58638 381.6391 384.99684 388.776 392.03184 395.14488 398.89686 404.24613 408.14085 410.1188 413.5513 416.5896 418.78507 420.19886 423.37989 428.72917 432.62388 436.23313 441.87467 447.5162 451.12544 454.84339 459.4382 462.9251 466.53434 470.21156 471.7681 473.1819 478.34086 482.82014 486.42936 492.0709 495.10917 496.6657 502.42283 506.80696 510.15788 513.937 515.3508 518.4707 521.509 523.70449 525.1182 528.82266 534.5798 539.52127 542.66146 544.0752 547.2562 550.57327">reproductioninanymedium,providedtheoriginalworkisproperlycited.TheCreativeCommonsPublicDomainDedicationwaiver</tspan><tspan y="-55.977697" x="183.22615 185.08853 188.69779 190.84564 193.0003 196.6775 197.94176 200.27315 202.76769 205.73799 207.82469 211.14165 214.28189 216.3346 217.89112 220.9294 224.34833 227.31864 231.03664 236.61702 242.19739 245.9222 249.53144 252.1483 253.27661 257.0354 259.01335 262.7925 265.23265 268.90986 272.55986 276.33903 277.7528 279.30256 282.27287 286.1064 289.71565 295.35719 298.4974 299.9112 303.61558 306.05574 308.74055 312.10508 314.19859 317.8078 320.24797 323.5649 324.7884 328.10539 330.5455 334.61695 337.75718 341.4344 345.26115 346.67494 348.22468 351.54167 356.36756 358.4203 364.3949 366.54957 370.15879 375.80036 379.57954 382.6178 384.81327 390.16255 395.74293 398.88316 402.56037 408.18833 411.32856 414.36683 417.55464 418.9684 420.51817 423.55644 427.38319 428.79698 434.4793 435.8931 441.8677 444.02238 447.6316 449.20173 453.9733 457.11354 459.09147 461.30055 462.71434 465.77983 467.28877 470.6057 474.09263 477.70185 481.31108 482.82005 486.19136 488.6655 493.51863 497.12788 499.3369 502.94615 506.31748 508.41099 513.3525 514.76626 517.36276 522.9431 525.5056 527.5583 530.7393 532.792 536.2041 539.88137">(http://creativecommons.org/publicdomain/zero/1.0/)appliestothedatamadeavailableinthisarticle,unlessotherwisestated.</tspan></text>
</svg>
